<svg xmlns="http://www.w3.org/2000/svg"><defs><style>.a{fill:none}</style></defs><symbol viewBox="0 0 21 20" id="icon-address"><path d="M2.25 0v3.375h1.875v-1.5h14.25V18H4.125v-1.5h1.5v-1.875H0V16.5h2.25v3.375h18V0h-18zM7.5 11.624h7.875v-6.75H7.5v6.75zM9.375 9.75H13.5v-3H9.375v3zM0 4.874V6.75h2.25v1.5h1.875v-1.5h1.5V4.874H0zM0 9.75v1.874h2.25v1.5h1.875v-1.5h1.5V9.75H0z" fill="#3B5997" id="address-Page-1" fill-rule="evenodd"/></symbol><symbol viewBox="0 0 22 16" id="icon-card"><g id="card-Style-Guide" fill="none" fill-rule="evenodd"><g id="card-Icons"><g id="card-icons/card"><path id="card-Frame-Copy" opacity=".1" d="M-9-12h40v40H-9z"/><path d="M18.313.688c.875 0 1.624.312 2.25.937.625.625.937 1.375.937 2.25v8.25c0 .875-.312 1.625-.938 2.25-.625.625-1.374.938-2.25.938H3.688c-.875 0-1.624-.313-2.25-.938C.813 13.75.5 13 .5 12.125v-8.25c0-.875.312-1.625.938-2.25C2.063 1 2.812.687 3.688.687h14.624zM3.688 2.563c-.36 0-.668.128-.926.386-.258.257-.387.566-.387.925v1.313h17.25V3.875c0-.36-.13-.668-.387-.926-.258-.26-.566-.388-.925-.388H3.688zm14.624 10.874c.36 0 .668-.128.926-.386.258-.257.387-.566.387-.925V7.062H2.375v5.063c0 .36.13.668.387.926.258.26.566.387.925.387h14.626zm-13.687-2.25V9.313H8v1.874H4.625z" id="card-creditcard" fill="#3B5997"/></g></g></g></symbol><symbol viewBox="0 0 20 20" id="icon-cart"><g id="cart-Page-1" fill-rule="evenodd"><path d="M5.906 15.75c.45 0 .838.16 1.16.482.32.32.48.707.48 1.16 0 .45-.16.836-.48 1.157-.322.32-.71.48-1.16.48-.45 0-.837-.16-1.158-.48-.322-.322-.482-.708-.482-1.16 0-.45.16-.837.482-1.158.32-.32.707-.482 1.158-.482zm10.5 0c.45 0 .838.16 1.16.482.32.32.48.707.48 1.16 0 .45-.16.836-.48 1.157-.322.32-.71.48-1.16.48-.45 0-.837-.16-1.158-.48-.322-.322-.482-.708-.482-1.16 0-.45.16-.837.482-1.158.32-.32.707-.482 1.158-.482zM5.773 1.97H19.36l-.072.88c-.014.288-.082 1.175-.205 2.66-.124 1.488-.216 2.427-.277 2.816-.096.663-.404 1.222-.923 1.677-.52.454-1.166.736-1.938.846-.014 0-2.704.32-8.07.963v-1.65c.56-.07 1.456-.176 2.687-.32 1.23-.143 2.332-.273 3.306-.39.975-.115 1.595-.194 1.86-.235.405-.048.736-.174.996-.38.26-.204.414-.457.462-.758.075-.485.208-1.975.4-4.47H5.905v8.52c0 .3.098.542.292.723.195.18.46.272.795.272h11.054v1.64H6.993c-.78 0-1.43-.25-1.948-.753-.52-.502-.78-1.13-.78-1.882V2.77c0-.302-.12-.565-.363-.79-.243-.227-.525-.34-.846-.34H0V0h3.056c.622 0 1.184.185 1.686.554.503.37.846.84 1.03 1.415z" id="cart-cart"/></g></symbol><symbol viewBox="0 0 14 10" id="icon-check"><g id="check-Page-1" fill="none" fill-rule="evenodd"><g id="check-inputs" fill="#fff"><g id="check-check-option"><path d="M5 10l9-8.617L12.585 0 5 7.28 1.415 3.864 0 5.213 5 10z" id="check-Path"/></g></g></g></symbol><symbol viewBox="0 0 21 21" id="icon-contact"><path d="M1.92 15.633v.023c.265.914.698 1.72 1.3 2.42.6.7 1.22 1.05 1.85 1.05h.013c.625-.01 1.408-.18 2.35-.516.94-.336 2.033-.895 3.275-1.676 1.242-.78 2.395-1.703 3.457-2.766 1.055-1.055 1.975-2.205 2.76-3.45.785-1.247 1.348-2.34 1.687-3.282.34-.942.514-1.72.522-2.338.008-.633-.342-1.252-1.05-1.858-.706-.605-1.52-1.04-2.442-1.306h-.012c-.125.28-.53 1.18-1.22 2.695-.225.476-.47 1.015-.737 1.616l-.035.082.023.035 2.005 2.004-.28.598c-.65 1.297-1.556 2.53-2.72 3.703-1.156 1.156-2.39 2.063-3.703 2.72l-.598.292-2.015-2.016-.025-.023-.094.036-1.616.738c-.812.383-1.71.79-2.695 1.22zM5.07 21c-.585 0-1.15-.14-1.692-.422-.543-.28-1.023-.656-1.44-1.125-.42-.468-.783-.982-1.09-1.54-.31-.56-.55-1.14-.722-1.74-.164-.57-.168-1.028-.012-1.372.157-.343.504-.632 1.043-.866.547-.242 1.438-.65 2.672-1.22.616-.272 1.163-.52 1.64-.737.39-.172.707-.258.95-.258.42 0 .84.206 1.253.62l1.043 1.043c.97-.578 1.844-1.258 2.625-2.04.798-.796 1.477-1.667 2.04-2.612l-1.043-1.054c-.367-.36-.572-.72-.615-1.084-.043-.363.037-.732.24-1.107l.75-1.64c.57-1.235.977-2.126 1.22-2.673l.175-.357c.054-.098.138-.22.25-.364.115-.143.26-.255.435-.333.176-.078.377-.117.604-.117.187 0 .445.047.773.14.6.173 1.183.415 1.745.727.563.313 1.078.678 1.547 1.096.47.418.844.902 1.125 1.453s.418 1.12.41 1.705c-.016 1.314-.516 2.947-1.5 4.9-.984 1.953-2.324 3.777-4.02 5.472-1.695 1.696-3.517 3.034-5.466 4.014-1.948.98-3.583 1.48-4.903 1.494H5.07z" fill="#3B5997"/></symbol><symbol viewBox="0 0 18 18" id="icon-delete"><g id="delete-Style-Guide" fill="none" fill-rule="evenodd"><g id="delete-Icons"><g id="delete-icons/ui/delete"><path id="delete-Frame" opacity=".1" d="M-11-11h40v40h-40z"/><path d="M7.67 9.045L.625 16.09l1.336 1.324L9 10.374l7.04 7.04 1.335-1.324-7.045-7.045.045-.045-.045-.045 7.045-7.045L16.04.586 9 7.626 1.96.585.626 1.91 7.67 8.955 7.625 9l.045.045z" id="delete-Combined-Shape" fill="#3B5997"/></g></g></g></symbol><symbol viewBox="0 0 18 18" id="icon-delete-noColor"><path class="a" d="M-11-11h40v40h-40z"/><path d="M7.67 9l-7 7L2 17.41l7-7 7 7 1.34-1.32-7-7 7-7L16 .59l-7 7-7-7L.63 1.91l7 7z"/></symbol><symbol viewBox="0 0 18 10" id="icon-down"><g id="down-Style-Guide" fill="none" fill-rule="evenodd"><g id="down-Icons"><g id="down-icons/arrow/down"><path id="down-Frame" opacity=".1" d="M-11-16h40v40h-40z"/><path d="M.586 1.46L1.91.126 9 7.215l7.09-7.09 1.324 1.336L9 9.876.586 1.46z" id="down-Icon" fill="#3B5997"/></g></g></g></symbol><symbol viewBox="0 0 22 17" id="icon-email"><g id="email-Page-1" fill="none" fill-rule="evenodd"><path d="M21.818 1.364C21.818.607 21.21 0 20.455 0H1.365C.606 0 0 .607 0 1.364l10.91 8.18 10.908-8.18zM0 3.814V15c0 .756.607 1.364 1.364 1.364h19.09c.757 0 1.364-.608 1.364-1.364V3.814l-10.91 8.182L0 3.814z" id="email-Email" fill="#3B5997"/></g></symbol><symbol viewBox="0 0 22 18" id="icon-email_preferences"><g id="email_preferences-Page-1" fill="none" fill-rule="evenodd"><g id="email_preferences-icons/email" fill="#3B5997"><path d="M11.908 7.752l6.68-4.857H3.75l6.68 4.857c.196.14.442.21.74.21s.544-.07.74-.21zm7.72 6.638V6.928l2.135-1.768v12.4H0V4.753l2.133 1.78v7.87L6.2 9.376l1.72 1.244L4 15.464h13.775l-3.72-4.583 1.72-1.243 3.854 4.753zM0 .8h21.763v2.173l-8.588 6.43c-.552.4-1.222.6-2.013.6-.783 0-1.45-.2-2-.6L0 2.566V.8z" id="email_preferences-Fill-1"/></g></g></symbol><symbol viewBox="0 0 24 24" id="icon-facebook"><g id="facebook-Style-Guide" fill="none" fill-rule="evenodd"><g id="facebook-Global-Elements" fill="#3B5997"><g id="facebook-Footer"><g id="facebook-global/social"><g id="facebook-Facebook"><g id="facebook-icons/social/facebook"><path d="M0 3.99C0 1.786 1.784 0 3.99 0h16.02C22.214 0 24 1.784 24 3.99v16.02c0 2.204-1.784 3.99-3.99 3.99H3.99C1.786 24 0 22.216 0 20.01V3.99zM11.582 24v-9.328h-3v-3.457h3V8.227c0-2.73 1.664-4.56 4.957-4.56 1.452 0 2.46.165 2.46.165V6.95h-2.25c-.996 0-1.5.562-1.5 1.546v2.72h3.504l-.504 3.456h-3V24h-3.668z" id="facebook-Combined-Shape"/></g></g></g></g></g></g></symbol><symbol viewBox="0 0 17 19" id="icon-gift"><path d="M11.17 7.44H4.995l-.63-1.697H11.8l-.63 1.696zm-9.494 5.79v3.733l.045.1.057.008h5.435v-3.84H1.676zm7.214 3.84h5.434l.074-.027.027-.08v-9.42l-.027-.077-.074-.03H12.49l.86-2.377c.226-.656.196-1.285-.093-1.92-.297-.63-.747-1.053-1.373-1.285-.65-.246-1.258-.22-1.87.08-.292.13-.54.316-.79.583-.17.192-.322.62-.432.932l-.115.317H7.42l-.058-.172c-.09-.274-.276-.843-.486-1.08-.22-.247-.478-.44-.77-.58-.618-.302-1.228-.326-1.873-.08-.633.234-1.095.667-1.377 1.286-.293.624-.323 1.252-.09 1.922l.86 2.373h-1.85l-.087.044-.014.063v3.988h5.536V8.67H8.89v2.863h4.283v1.7H8.89v3.84zm5.434 1.7H1.777c-.38 0-.722-.11-1.022-.332l-.233-.204c-.347-.35-.522-.778-.522-1.27v-9.42c0-.43.154-.84.447-1.184.233-.27.502-.448.815-.538l-.07-.18C1.005 5.126.924 4.626.945 4.106l.007-.13c.04-.54.164-1.046.384-1.55.21-.472.52-.91.917-1.304.15-.138.3-.258.456-.37L2.774.71c.266-.18.56-.334.876-.458l.292-.096.1-.027c.396-.103.804-.142 1.205-.126.576.03 1.088.16 1.564.398.21.095.514.308.897.63l.345.3c.29-.257.875-.76 1.245-.933.484-.236.995-.365 1.558-.396.418-.017.83.023 1.227.13l.364.116c.26.1.503.218.728.355.242.148.467.32.672.514.35.333.63.707.84 1.112l.092.192c.204.47.33.974.384 1.547l.008.145c.02.53-.067 1.03-.262 1.528l-.063.18.192.067c.24.104.45.264.622.474.29.327.443.726.443 1.18v9.42c0 .49-.176.92-.523 1.272-.333.353-.757.535-1.256.535z" fill="#3B5998"/></symbol><symbol viewBox="0 0 22 22" id="icon-FB"><g id="FB-Page-1" fill="none" fill-rule="evenodd"><path d="M1.364 0C.618 0 0 .618 0 1.364v19.09c0 .746.618 1.364 1.364 1.364h10.3v-8.48H8.94v-3.143h2.727V7.48c0-2.484 1.513-4.145 4.507-4.145 1.32 0 2.237.15 2.237.15v2.832h-2.046c-.906 0-1.364.512-1.364 1.407v2.47h3.185l-.458 3.144H15v8.48h5.455c.745 0 1.363-.618 1.363-1.363V1.365C21.818.617 21.2 0 20.455 0H1.365z" id="FB-Facebook-" fill="#3B5997"/></g></symbol><symbol viewBox="0 0 22 19" id="icon-googleplus"><g id="googleplus-Page-1" fill="none" fill-rule="evenodd"><path d="M21.818 3.633h-3.633V0h-.916v3.633h-3.634v.916h3.633V8.18h.915V4.55h3.633v-.917zM9.47 11.058C8.94 10.708 7.96 9.822 7.96 9.29c0-.607.17-.906 1.087-1.64.96-.736 1.608-1.77 1.608-2.973 0-1.45-.628-2.834-1.843-3.292h1.822l1.29-.927H6.21c-2.58 0-4.976 1.94-4.976 4.187 0 2.3 1.747 4.144 4.346 4.144.17 0 .352 0 .533-.022-.18.32-.277.703-.277 1.076 0 .64.32 1.14.756 1.566h-.99C2.45 11.41 0 13.434 0 15.533c0 2.066 2.674 3.355 5.838 3.355 3.633 0 5.625-2.045 5.625-4.112 0-1.64-.5-2.63-1.992-3.718zM6.414 8.203c-1.46-.042-2.876-1.64-3.132-3.58-.254-1.917.736-3.41 2.196-3.355 1.49.042 2.887 1.587 3.132 3.526.256 1.928-.724 3.462-2.195 3.41zm-.575 9.78c-2.205 0-3.77-1.396-3.77-3.058 0-1.64 1.948-2.983 4.143-2.983.512.032.992.107 1.418.235 1.182.83 2.045 1.31 2.3 2.237.022.202.044.384.044.586 0 1.662-1.055 2.983-4.134 2.983z" id="googleplus-pinterest-" fill="#3B5997"/></g></symbol><symbol viewBox="0 0 10 18" id="icon-left"><g id="left-Style-Guide" fill-rule="evenodd"><g id="left-Icons"><g id="left-icons/arrow/left"><path d="M8.54 17.414l1.335-1.324L2.785 9l7.09-7.09L8.54.586.124 9l8.414 8.414z" id="left-Icon"/></g></g></g></symbol><symbol viewBox="0 0 6 10" id="icon-link-arrow"><g id="link-arrow-Style-Guide" fill="none" fill-rule="evenodd"><g id="link-arrow-Icons" fill="#444"><g id="link-arrow-icons/link-arrow"><path d="M0 10V0l6 5-6 5z" id="link-arrow-Icon"/></g></g></g></symbol><symbol viewBox="0 0 16 2" id="icon-minus"><g id="minus-Style-Guide" fill="none" fill-rule="evenodd"><g id="minus-Icons"><g id="minus-icons/ui/minus"><path id="minus-Frame" opacity=".1" d="M-12-19h40v40h-40z"/><path d="M16 .07v1.86H0V.07h16z" id="minus-Path" fill="#3B5997"/></g></g></g></symbol><symbol viewBox="0 0 16 12" id="icon-nav"><g id="nav-Style-Guide" fill="none" fill-rule="evenodd"><g id="nav-Icons" fill="#3B5997"><g id="nav-icons/header/nav"><path d="M16 1.9V.1H0v1.8h16zm0 5V5.1H0v1.8h16zm0 5v-1.8H0v1.8h16z" id="nav-Combined-Shape"/></g></g></g></symbol><symbol viewBox="0 0 22 20" id="icon-order"><g id="order-Style-Guide" fill="none" fill-rule="evenodd"><g id="order-Icons"><g id="order-icons/order"><path id="order-Frame-Copy" opacity=".1" d="M-9-10h40v40H-9z"/><path d="M17.41.438l3.902 5.32v13.805H.688V5.758L4.59.438h12.82zm2.027 17.25V7.563h-6V5.688h5.497L16.46 2.313h-4.523v5.25h-1.874v-5.25H5.538L3.065 5.687h5.497v1.875h-6v10.125h16.875z" id="order-box" fill="#3B5997"/></g></g></g></symbol><symbol viewBox="0 0 17 20" id="icon-password"><g id="password-Page-1" fill="none" fill-rule="evenodd"><path d="M5.338.832c-.95.555-1.702 1.307-2.256 2.256-.554.95-.832 1.983-.832 3.1v1.7c-.633.046-1.166.304-1.6.773C.216 9.13 0 9.68 0 10.313v6.75c0 .673.238 1.247.715 1.723.476.477 1.05.715 1.723.715h12c.672 0 1.245-.238 1.722-.715.477-.476.714-1.05.714-1.723v-6.75c0-.632-.216-1.183-.65-1.65-.433-.47-.967-.728-1.6-.775v-1.7c0-1.116-.277-2.15-.83-3.1-.556-.948-1.308-1.7-2.257-2.255C10.587.277 9.555 0 8.437 0c-1.117 0-2.15.277-3.1.832zm-3.3 16.63c-.11-.11-.163-.243-.163-.4v-6.75c0-.155.054-.288.164-.397.108-.11.24-.165.398-.165h1.687V6.188c0-1.188.42-2.204 1.266-3.048.844-.843 1.86-1.265 3.047-1.265 1.188 0 2.204.422 3.047 1.265.844.844 1.266 1.86 1.266 3.048v1.687H5.624V9.75h8.813c.156 0 .29.055.4.165.108.11.163.242.163.397v6.75c0 .157-.055.29-.164.4-.11.11-.243.163-.4.163H2.44c-.157 0-.29-.054-.4-.164zm5.204-5.34c-.328.333-.492.73-.492 1.19 0 .603.25 1.07.75 1.408v1.406h1.875V14.72c.5-.337.75-.805.75-1.407 0-.46-.164-.858-.492-1.19-.328-.332-.727-.497-1.196-.497-.468 0-.867.165-1.195.497z" id="password-icon-password" fill="#3A5897"/></g></symbol><symbol viewBox="0 0 17 21" id="icon-pdf"><path d="M12.75 4.875H10.5v.75h1.875V6.75H10.5v1.875H9.375V3.75h3.375v1.125zm-4.875 12V11.25H13.5v1.875H9.75v3.75H7.875zM6.352 7.5c.25 0 .45-.084.603-.252.152-.168.246-.336.28-.504.036-.168.054-.346.054-.533l-.03-.34c-.02-.116-.06-.26-.123-.427-.063-.168-.17-.304-.323-.41-.152-.105-.337-.158-.556-.158h-.633V7.5h.727zm.293-3.75c.445 0 .818.127 1.12.38.3.255.508.56.626.915s.176.744.176 1.166c0 .735-.183 1.32-.55 1.76-.368.436-.91.655-1.63.655H4.5V3.75h2.145zm-5.52 1.125v1.5h.668c.18 0 .34-.068.48-.205.14-.137.21-.318.21-.545 0-.21-.06-.39-.186-.533-.125-.145-.27-.217-.434-.217h-.738zm0 2.625v1.125H0V3.75h2.168c.516 0 .906.207 1.172.62.265.415.398.833.398 1.255 0 .555-.156 1.006-.468 1.354-.313.346-.715.52-1.208.52h-.937zM0 0h16.875v14.074l-6.14 6.176H0V10.5h1.875v7.875H9.95L15 13.3V1.876H0V0z" fill="#3B5997"/></symbol><symbol viewBox="0 0 24 24" id="icon-pinterest"><g id="pinterest-Style-Guide" fill="none" fill-rule="evenodd"><g id="pinterest-Global-Elements" fill="#3B5997"><g id="pinterest-Footer"><g id="pinterest-global/social"><g id="pinterest-Pinterest"><g id="pinterest-icons/social/pinterest"><path d="M0 3.99C0 1.786 1.784 0 3.99 0h16.02C22.214 0 24 1.784 24 3.99v16.02c0 2.204-1.784 3.99-3.99 3.99H3.99C1.786 24 0 22.216 0 20.01V3.99zm5.425 6.11c0 1.67.63 3.164 1.993 3.737.232.083.43 0 .49-.257.04-.158.157-.59.2-.78.057-.24.032-.316-.142-.532-.39-.473-.648-1.062-.648-1.934 0-2.457 1.85-4.665 4.823-4.665 2.616 0 4.052 1.592 4.052 3.742 0 2.815-1.237 5.197-3.088 5.197-1.03 0-1.793-.848-1.56-1.894.298-1.237.87-2.573.87-3.46 0-.807-.43-1.462-1.32-1.462-1.045 0-1.867 1.062-1.867 2.523 0 .922.29 1.553.29 1.553s-1.062 4.524-1.236 5.312c-.373 1.578-.057 3.52-.04 3.72.024.1.157.14.24.04.1-.115 1.337-1.65 1.752-3.187.133-.43.69-2.673.69-2.673.347.648 1.335 1.196 2.398 1.196 3.13 0 5.255-2.856 5.255-6.69 0-2.89-2.44-5.588-6.185-5.588-4.64 0-6.965 3.33-6.965 6.1z" id="pinterest-Combined-Shape"/></g></g></g></g></g></g></symbol><symbol viewBox="0 0 17 22" id="icon-PinterestPdp"><g id="PinterestPdp-Page-1" fill="none" fill-rule="evenodd"><path d="M8.74 0C2.916 0 0 4.177 0 7.656c0 2.094.792 3.97 2.5 4.687.292.105.542 0 .614-.323.053-.197.198-.74.25-.98.073-.3.042-.394-.177-.665-.49-.594-.812-1.334-.812-2.427 0-3.084 2.323-5.854 6.052-5.854 3.28 0 5.083 2 5.083 4.697 0 3.533-1.552 6.522-3.875 6.522-1.29 0-2.25-1.062-1.958-2.375.375-1.552 1.094-3.23 1.094-4.343 0-1.01-.54-1.834-1.656-1.834-1.312 0-2.343 1.334-2.343 3.167 0 1.156.365 1.948.365 1.948s-1.333 5.677-1.552 6.666c-.47 1.98-.073 4.418-.052 4.668.032.125.2.177.303.052.125-.146 1.677-2.073 2.198-4 .168-.542.866-3.354.866-3.354.437.812 1.677 1.5 3.01 1.5 3.927 0 6.594-3.583 6.594-8.396C16.5 3.385 13.437 0 8.74 0z" id="PinterestPdp-pinterest-" fill="#3B5997"/></g></symbol><symbol viewBox="0 0 16 16" id="icon-plus"><g id="plus-Style-Guide" fill="none" fill-rule="evenodd"><g id="plus-Icons"><g id="plus-icons/ui/plus"><path id="plus-Frame" opacity=".1" d="M-12-12h40v40h-40z"/><path d="M16 7.07v1.86H8.93V16H7.07V8.93H0V7.07h7.07V0h1.86v7.07H16z" id="plus-Plus" fill="#3B5997"/></g></g></g></symbol><symbol viewBox="0 0 22 16" id="icon-privacy"><path d="M13.165 6.703l1.718-.844c.328.64.492 1.312.492 2.015 0 1.242-.45 2.303-1.35 3.182-.902.878-1.99 1.318-3.263 1.318s-2.36-.44-3.26-1.318c-.902-.88-1.353-1.94-1.353-3.182S6.6 5.572 7.5 4.693s1.988-1.318 3.262-1.318V5.25c-.737 0-1.37.258-1.897.773-.53.516-.793 1.133-.793 1.852 0 .72.264 1.336.793 1.85.528.517 1.16.775 1.897.775.737 0 1.37-.258 1.898-.774.528-.515.792-1.132.792-1.85 0-.407-.096-.798-.288-1.173zm-4.78 6.814c.79.24 1.585.358 2.377.358.793 0 1.586-.12 2.38-.358.79-.238 1.502-.546 2.13-.925.63-.38 1.22-.8 1.772-1.26.552-.46 1.013-.914 1.382-1.36.368-.445.656-.853.865-1.224.21-.37.313-.662.313-.873 0-.21-.104-.502-.312-.873-.208-.37-.496-.78-.864-1.225-.37-.445-.83-.898-1.382-1.36-.552-.46-1.143-.88-1.77-1.26-.63-.378-1.34-.686-2.133-.925-.792-.238-1.585-.357-2.378-.357-.792 0-1.586.12-2.378.357-.792.24-1.504.547-2.132.926-.628.38-1.22.8-1.772 1.26-.552.46-1.013.914-1.38 1.36-.37.445-.658.853-.866 1.224-.208.37-.313.662-.313.873 0 .21.106.502.314.873.208.37.496.78.865 1.225.367.445.827.898 1.38 1.36.552.46 1.144.88 1.772 1.26.628.378 1.34.686 2.132.924zM7.964.404C8.9.134 9.834 0 10.76 0c.93 0 1.862.135 2.8.404.936.27 1.79.623 2.564 1.06.773.438 1.5.938 2.18 1.5.68.563 1.253 1.135 1.717 1.718.465.582.83 1.152 1.1 1.71.268.56.402 1.053.402 1.483 0 .43-.134.924-.402 1.482-.27.56-.634 1.13-1.1 1.71-.464.583-1.036 1.156-1.717 1.718-.68.563-1.407 1.063-2.18 1.5-.773.438-1.628.79-2.565 1.06-.936.27-1.87.405-2.798.405-.93 0-1.86-.135-2.798-.404-.937-.27-1.792-.623-2.565-1.06-.774-.438-1.5-.938-2.18-1.5-.682-.563-1.255-1.136-1.72-1.718-.463-.582-.83-1.152-1.098-1.71C.132 8.797 0 8.304 0 7.874c0-.43.133-.924.402-1.483.27-.558.634-1.128 1.1-1.71.463-.583 1.036-1.155 1.717-1.717.68-.563 1.406-1.063 2.18-1.5.772-.438 1.627-.79 2.564-1.06z" fill="#3B5997"/></symbol><symbol viewBox="0 0 21 20" id="icon-returns"><path d="M6.28 12.363l4.032-4.043 4.043 4.043-1.336 1.324-1.77-1.77v3.458H9.375v-3.457l-1.77 1.77-1.324-1.325zm12.47 4.887V7.125h-6V5.25h5.496l-2.473-3.375H11.25v5.25H9.375v-5.25H4.85L2.38 5.25h5.495v1.875h-6V17.25H18.75zM16.722 0l3.903 5.32v13.805H0V5.32L3.902 0h12.82z" fill="#3B5997"/></symbol><symbol viewBox="0 0 10 18" id="icon-right"><g id="right-Style-Guide" fill-rule="evenodd"><g id="right-Icons"><g id="right-icons/arrow/right"><path d="M1.46 17.414L.126 16.09 7.215 9 .125 1.91 1.46.586 9.876 9 1.46 17.414z" id="right-Icon"/></g></g></g></symbol><symbol viewBox="0 0 20 20" id="icon-search-lg"><g id="search-lg-Style-Guide" fill-rule="evenodd"><g id="search-lg-Icons"><g id="search-lg-icons/search-lg"><path d="M20 18.578L18.578 20l-5.3-5.3c-1.484 1.16-3.17 1.738-5.06 1.738-1.09 0-2.137-.208-3.14-.623-1.002-.415-1.894-1.01-2.674-1.78-.772-.773-1.366-1.66-1.78-2.663C.207 10.37 0 9.318 0 8.22c0-1.1.208-2.15.623-3.154.415-1.003 1.01-1.89 1.78-2.662.78-.772 1.673-1.366 2.676-1.78C6.08.207 7.127 0 8.22 0c1.098 0 2.15.208 3.152.623 1.003.415 1.89 1.01 2.662 1.78.78.773 1.378 1.66 1.794 2.663.415 1.003.623 2.054.623 3.153 0 1.88-.583 3.565-1.75 5.06l5.3 5.298zM3.814 12.612C5.03 13.828 6.5 14.437 8.22 14.437c1.72 0 3.188-.61 4.404-1.825 1.21-1.21 1.813-2.673 1.813-4.393 0-1.713-.604-3.18-1.813-4.406C11.4 2.604 9.93 2 8.22 2c-1.72 0-3.185.605-4.394 1.814C2.61 5.03 2 6.5 2 8.22c0 1.72.605 3.183 1.814 4.392z" id="search-lg-Combined-Shape"/></g></g></g></symbol><symbol viewBox="0 0 23 23" id="icon-ship-info"><path d="M14.707 6.234c0-.47.164-.867.492-1.195.327-.33.726-.493 1.194-.493.47 0 .868.164 1.196.492.328.327.492.725.492 1.194 0 .47-.164.867-.492 1.195-.328.327-.727.49-1.196.49-.468 0-.867-.163-1.195-.49-.33-.33-.493-.727-.493-1.196zm-5.32 8.227l4.863-4.863 1.336 1.324-4.875 4.865-1.323-1.324zm2.355-7.382l1.324 1.324-4.875 4.875-1.323-1.324 4.875-4.875zm-.293 12.88l9.245-9.236-.61-8.32-8.18-.48-9.257 9.246 8.8 8.79zM21.83.63l.797 10.805-11.18 11.18L0 11.167 11.168 0l10.664.632z" fill="#3B5997"/></symbol><symbol viewBox="0 0 22 15" id="icon-shipping"><path d="M20.1 11.287c.186-.048.324-.21.33-.406l.06-2.113c.003-.105-.033-.207-.1-.288l-2.87-3.057c-.086-.1-.21-.158-.344-.158l-2.2.002c-.245 0-.357-.035-.357.204v3.212l-1.627.027V2.072c0-.24-.198-.432-.443-.432L2.305 1.615c-.245 0-.443.194-.443.433v8.82c0 .24.198.434.443.434h.077c.334-1.082 1.364-1.87 2.585-1.87 1.49 0 2.698 1.176 2.698 2.628 0 1.45-1.208 2.627-2.698 2.627-1.206 0-2.227-.77-2.573-1.833h-1.39C.45 12.852 0 12.415 0 11.876V.976C0 .438.3 0 .853 0h12.622c.553 0 1.002.436 1.002.975l.15 2.74 2.964-.004c.27 0 .526.12.695.326l3.52 3.74c.127.154.195.345.195.542l-.007 3.228c0 .477-.398 1.306-.89 1.306h-1.01c-.347 1.062-1.368 1.833-2.574 1.833s-2.228-.77-2.574-1.833l-5.582-.003V11.3h5.57c.276-.894 1.027-1.587 1.968-1.8.198-.05.405-.076.617-.076.21 0 .417.026.616.075.936.212 1.685.9 1.964 1.787zm-15.134-.533c-.74 0-1.34.584-1.34 1.304 0 .72.6 1.303 1.34 1.303.74 0 1.34-.582 1.34-1.302s-.6-1.304-1.34-1.304zm12.554 0c-.74 0-1.34.584-1.34 1.304 0 .72.6 1.303 1.34 1.303.74 0 1.34-.582 1.34-1.302s-.6-1.304-1.34-1.304z" fill="#3B5997"/></symbol><symbol viewBox="0 0 23 14" id="icon-size-chart"><path d="M1.21 10.392c.655-.488 1.54-.73 2.652-.73.263 0 .49.01.684.036-.293.444-.49.925-.59 1.444l-.052-.005-.042-.004c-.406 0-.762.04-1.07.122-.305.08-.536.176-.692.285-.157.11-.283.24-.38.39-.097.15-.158.27-.183.365l-.047.29-.094 1.266H0l.103-1.386c.08-.894.45-1.584 1.106-2.072zm1.544-5.31c-.263 0-.486.074-.67.224-.185.15-.277.38-.277.685 0 .376.09.687.267.934.178.247.405.37.68.37s.5-.123.68-.37c.178-.247.267-.558.267-.933 0-.324-.09-.557-.27-.698-.182-.14-.407-.21-.676-.21zM4.48 7.954c-.457.522-1.03.783-1.717.783s-1.26-.26-1.715-.783C.59 7.433.363 6.78.363 6c0-.68.227-1.245.68-1.692.453-.447 1.027-.67 1.72-.67.682 0 1.252.226 1.71.68.46.453.69 1.013.69 1.682 0 .78-.228 1.433-.684 1.955zM17.31 2.18c-.265-.25-.594-.375-.984-.375s-.72.125-.985.375c-.264.25-.397.562-.397.937 0 .524.13.96.393 1.307.26.348.59.522.99.522.398 0 .728-.174.99-.522.262-.348.393-.783.393-1.307 0-.375-.134-.687-.4-.937zm1.29 3.533c-.61.69-1.368 1.037-2.274 1.037-.906 0-1.664-.346-2.274-1.037-.61-.69-.914-1.553-.914-2.584 0-.884.307-1.626.92-2.227C14.67.3 15.428 0 16.326 0c.898 0 1.654.3 2.267.903.614.6.92 1.343.92 2.226 0 1.03-.304 1.892-.914 2.583zm-5.73 5.63l-.212 2.532h-1.746l.21-2.66c.118-1.18.645-2.092 1.583-2.736.937-.646 2.207-.968 3.808-.968 1.602 0 2.87.322 3.81.967.936.643 1.464 1.55 1.58 2.723l.212 2.672H20.37l-.212-2.543c-.063-.648-.406-1.14-1.03-1.476-.626-.336-1.498-.504-2.615-.504-1.117 0-1.988.168-2.613.504-.625.336-.97.832-1.03 1.488zm-2.644-7.757c-.23-.187-.51-.28-.838-.28-.328 0-.607.093-.838.28-.23.188-.345.473-.345.856 0 .468.11.857.334 1.166.22.308.505.463.848.463.344 0 .627-.154.85-.462.223-.31.334-.698.334-1.166 0-.383-.115-.668-.346-.856zm1.307 3.31c-.57.653-1.285.98-2.145.98-.86 0-1.574-.327-2.144-.98-.57-.652-.856-1.466-.856-2.443 0-.85.283-1.556.85-2.115.566-.56 1.283-.838 2.15-.838s1.584.28 2.15.838c.567.56.85 1.264.85 2.115 0 .977-.285 1.79-.855 2.444zm-4.758 5.41l-.117 1.57H4.923l.118-1.723c.102-1.118.56-1.983 1.378-2.596.816-.613 1.923-.92 3.322-.92.328 0 .617.016.867.047-.36.523-.61 1.125-.75 1.804l-.053-.005-.064-.006c-.508 0-.953.05-1.336.152-.383.1-.672.22-.867.357-.196.136-.354.3-.475.492-.12.19-.197.344-.228.462-.032.117-.05.238-.06.363z" fill="#3B5997"/></symbol><symbol viewBox="0 0 16 15" id="icon-StarIcon"><g id="StarIcon-Page-1" fill="none" fill-rule="evenodd"><path id="StarIcon-star-empty" stroke="#CE9A00" d="M7.98 11.463l-3.696 1.95.706-4.13L2 6.36h4.132L7.98 2l1.848 4.36h4.132l-2.99 2.924.706 4.13z"/></g></symbol><symbol viewBox="0 0 16 15" id="icon-StarIconHalf_Fill"><g id="StarIconHalf_Fill-Page-1" fill="none" fill-rule="evenodd"><g id="StarIconHalf_Fill-half-star"><path id="StarIconHalf_Fill-Star-1" stroke="#CE9A00" d="M7.98 11.463l-3.696 1.95.706-4.13L2 6.36h4.132L7.98 2l1.848 4.36h4.132l-2.99 2.924.706 4.13z"/><path d="M7.98 10.898v-.963-7.498c0-.553.177-.584.392-.077l1.456 3.435h4.132L10.97 8.72l.706 4.128-3.696-1.95z" id="StarIconHalf_Fill-Star-1" fill="#FFF"/><path id="StarIconHalf_Fill-Star-1" stroke="#CE9A00" d="M7.98 11.463l-3.696 1.95.706-4.13L2 6.36h4.132L7.98 2l1.848 4.36h4.132l-2.99 2.924.706 4.13z"/></g></g></symbol><symbol viewBox="0 0 16 15" id="icon-StarIcon_Fill"><g id="StarIcon_Fill-Page-1" fill="#f3d000" fill-rule="evenodd"><path id="StarIcon_Fill-star-empty" stroke="#CE9A00" d="M7.98 11.463l-3.696 1.95.706-4.13L2 6.36h4.132L7.98 2l1.848 4.36h4.132l-2.99 2.924.706 4.13z"/></g></symbol><symbol viewBox="0 0 40 40" id="icon-top"><path fill-rule="evenodd" clip-rule="evenodd" d="M21.8 6.9V40h-3.6V6.9L7.1 18l-2.6-2.6L20 0l15.5 15.4-2.6 2.6z"/></symbol><symbol viewBox="0 0 25 24" id="icon-twitter"><g id="twitter-Style-Guide" fill="none" fill-rule="evenodd"><g id="twitter-Global-Elements" fill="#3B5997"><g id="twitter-Footer"><g id="twitter-global/social"><g id="twitter-Twitter"><g id="twitter-icons/social/twitter"><path d="M.5 3.99C.5 1.786 2.284 0 4.49 0h16.02c2.204 0 3.99 1.784 3.99 3.99v16.02c0 2.204-1.784 3.99-3.99 3.99H4.49C2.286 24 .5 22.216.5 20.01V3.99zm21 2.388c-.63.283-1.295.474-2.01.557.732-.432 1.28-1.12 1.537-1.935-.664.4-1.42.69-2.2.847-.656-.664-1.56-1.096-2.565-1.096-1.926 0-3.478 1.554-3.478 3.48 0 .273.017.556.075.805-2.89-.158-5.446-1.47-7.18-3.578-.292.515-.474 1.046-.474 1.693 0 1.196.614 2.258 1.56 2.89-.573-.018-1.104-.175-1.577-.433v.042c0 1.692 1.203 3.103 2.796 3.42-.298.082-.614.123-.93.123-.215 0-.43-.025-.647-.066.43 1.378 1.734 2.407 3.245 2.424-1.18.947-2.698 1.653-4.325 1.653-.282 0-.556-.017-.83-.058 1.536.987 3.387 1.42 5.354 1.42 6.408 0 9.91-5.314 9.91-9.92v-.457c.674-.49 1.263-1.096 1.736-1.81z" id="twitter-Combined-Shape"/></g></g></g></g></g></g></symbol><symbol viewBox="0 0 22 18" id="icon-twitterPdp"><g id="twitterPdp-Page-1" fill="none" fill-rule="evenodd"><path d="M21.818 2.088c-.81.362-1.662.607-2.578.714.938-.554 1.64-1.438 1.97-2.482-.85.51-1.82.884-2.822 1.086C17.546.554 16.385 0 15.096 0c-2.472 0-4.464 1.992-4.464 4.464 0 .35.02.714.096 1.033-3.707-.202-6.99-1.885-9.215-4.59-.373.66-.607 1.34-.607 2.172 0 1.533.788 2.897 2.002 3.706-.735-.02-1.417-.223-2.024-.554v.054c0 2.173 1.545 3.984 3.59 4.39-.383.105-.788.16-1.193.16-.276 0-.553-.033-.83-.087.554 1.768 2.227 3.09 4.166 3.11-1.513 1.215-3.463 2.12-5.55 2.12-.363 0-.714-.02-1.066-.074 1.97 1.267 4.347 1.82 6.87 1.82 8.226 0 12.722-6.817 12.722-12.73V4.41c.863-.628 1.62-1.406 2.226-2.322z" id="twitterPdp-twitter" fill="#3B5997"/></g></symbol><symbol viewBox="0 0 17 21" id="icon-terms"><path d="M0 0v20.25h10.734l6.14-6.176V0H0zm1.875 1.875H15V13.3l-5.05 5.075H1.874v-16.5zM4.5 6h7.875V4.124H4.5V6zm0 3.375h7.875V7.5H4.5v1.875zm3.375 1.875v5.625H9.75v-3.75h3.75V11.25H7.875z" fill="#3B5997"/></symbol><symbol viewBox="0 0 18 10" id="icon-up"><g id="up-Style-Guide" fill="none" fill-rule="evenodd"><g id="up-Icons"><g id="up-icons/arrow/up"><path id="up-Frame" opacity=".1" d="M-11-15h40v40h-40z"/><path d="M17.414 8.54L16.09 9.874 9 2.785l-7.09 7.09L.586 8.54 9 .124l8.414 8.414z" id="up-Icon" fill="#3B5997"/></g></g></g></symbol><symbol viewBox="0 0 20 22" id="icon-user"><g id="user-Style-Guide" fill="none" fill-rule="evenodd"><g id="user-Icons"><g id="user-icons/user"><path id="user-Frame-Copy" opacity=".1" d="M-10-9h40v40h-40z"/><path d="M10 12.125c-1.492 0-2.74-.604-3.744-1.81C5.252 9.106 4.75 7.604 4.75 5.808c0-.94.238-1.818.715-2.638.476-.82 1.12-1.47 1.928-1.95C8.2.74 9.07.5 10 .5c.93 0 1.8.24 2.607.72.81.48 1.452 1.132 1.928 1.952.477.82.715 1.7.715 2.637 0 1.795-.502 3.297-1.506 4.504-1.004 1.207-2.252 1.81-3.744 1.81zm0-9.81c-.906 0-1.703.35-2.39 1.05-.688.7-1.032 1.514-1.032 2.444 0 1.28.326 2.35.98 3.21.65.86 1.465 1.29 2.442 1.29.977 0 1.79-.43 2.443-1.29.653-.86.98-1.93.98-3.21 0-.93-.345-1.746-1.032-2.445-.687-.7-1.484-1.05-2.39-1.05zM2.137 21.5H.262l.164-1.922c.203-1.922 1.127-3.394 2.77-4.418C4.843 14.137 7.11 13.625 10 13.625c2.89 0 5.158.51 6.803 1.53 1.644 1.02 2.568 2.49 2.77 4.41l.165 1.935h-1.875l-.164-1.758c-.07-.672-.28-1.267-.628-1.787-.347-.52-.77-.932-1.27-1.236-.5-.306-1.09-.556-1.765-.75-.676-.197-1.336-.33-1.98-.4-.645-.07-1.33-.105-2.057-.105-.727 0-1.412.035-2.057.105-.644.07-1.304.203-1.98.4-.676.194-1.264.446-1.764.755-.5.308-.925.72-1.272 1.236-.348.517-.557 1.114-.627 1.794L2.138 21.5z" id="user-user" fill="#3B5997"/></g></g></g></symbol><symbol viewBox="0 0 24 25" id="icon-zoom"><g id="zoom-Page-1" fill="none" fill-rule="evenodd"><g id="zoom-icons/ui/zoom"><path id="zoom-Frame" opacity=".275" d="M-8-8h40v40H-8z"/><path d="M8 8H5v2h3v3h2v-3h3V8h-3V5H8v3zm5.587 8.745C12.243 17.542 10.675 18 9 18c-4.97 0-9-4.03-9-9s4.03-9 9-9 9 4.03 9 9c0 2.21-.796 4.233-2.117 5.8l7.37 7.37-2.12 2.12-7.546-7.545z" id="zoom-Icon" fill="#5F574F"/></g></g></symbol><symbol viewBox="0 0 40 40" id="icon-question"><path fill-rule="evenodd" clip-rule="evenodd" d="M20.4 7c-2.7 0-5 .8-6.4 1.6l1.3 4.2c1-.7 2.5-1.1 3.8-1.1 1.9 0 2.8 1 2.8 2.3 0 1.3-1 2.6-2.2 4.1-1.7 2-2.4 4.1-2.3 6v1.2h5.3v-1c0-1.7.5-3.2 1.8-4.8 1.5-1.6 3.2-3.5 3.2-6.4.1-3.3-2.3-6.1-7.3-6.1"/><path d="M20 3.1c9.3 0 16.9 7.6 16.9 16.9S29.3 36.9 20 36.9 3.1 29.3 3.1 20 10.7 3.1 20 3.1M20 0C9 0 0 9 0 20s9 20 20 20 20-9 20-20S31 0 20 0z"/><circle fill-rule="evenodd" clip-rule="evenodd" cx="20" cy="31" r="3"/></symbol><symbol viewBox="0 0 23 16" id="icon-VanIconBlue"><g id="VanIconBlue-Page-1" fill="none" fill-rule="evenodd"><g id="VanIconBlue-icon/truck" fill="#3B5997"><path d="M20.1 12.287c.186-.048.324-.21.33-.406l.06-2.113c.004-.105-.032-.207-.1-.288l-2.87-3.057c-.085-.1-.21-.157-.343-.157l-2.2.002c-.246 0-.358-.036-.358.203v3.212l-1.627.027V3.072c0-.24-.198-.432-.443-.432L2.305 2.615c-.246 0-.444.194-.444.433v8.82c0 .24.2.434.445.434h.076c.335-1.082 1.366-1.87 2.586-1.87 1.49 0 2.7 1.176 2.7 2.628 0 1.45-1.21 2.627-2.7 2.627-1.206 0-2.227-.77-2.572-1.833H1.002C.45 13.852 0 13.415 0 12.876v-10.9C0 1.44.298 1 .852 1h12.622c.553 0 1.002.437 1.002.976l.15 2.738 2.964-.003c.27 0 .526.12.696.326l3.52 3.74c.126.154.194.345.194.542l-.006 3.228c0 .477-.4 1.306-.89 1.306h-1.01c-.347 1.063-1.368 1.833-2.574 1.833-1.206 0-2.227-.77-2.573-1.833l-5.58-.003V12.3h5.568c.276-.894 1.027-1.587 1.968-1.8.198-.05.405-.076.617-.076.212 0 .418.026.616.075.937.212 1.685.9 1.964 1.787zm-15.134-.533c-.74 0-1.338.584-1.338 1.304 0 .72.6 1.303 1.338 1.303.74 0 1.34-.582 1.34-1.302 0-.72-.6-1.304-1.34-1.304zm12.554 0c-.74 0-1.34.584-1.34 1.304 0 .72.6 1.303 1.34 1.303.74 0 1.34-.582 1.34-1.302 0-.72-.6-1.304-1.34-1.304z" id="VanIconBlue-Fill-1"/></g></g></symbol><symbol viewBox="0 0 23 16" id="icon-VanIconGrey"><g id="VanIconGrey-Page-1" fill="#DFDFDF" fill-rule="evenodd"><g id="VanIconGrey-Group-3"><path d="M20.1 12.287c.186-.048.324-.21.33-.406l.06-2.113c.004-.105-.032-.207-.1-.288l-2.87-3.057c-.085-.1-.21-.157-.343-.157l-2.2.002c-.246 0-.358-.036-.358.203v3.212l-1.627.027V3.072c0-.24-.198-.432-.443-.432L2.305 2.615c-.246 0-.444.194-.444.433v8.82c0 .24.2.434.445.434h.076c.335-1.082 1.366-1.87 2.586-1.87 1.49 0 2.7 1.176 2.7 2.628 0 1.45-1.21 2.627-2.7 2.627-1.206 0-2.227-.77-2.572-1.833H1.002C.45 13.852 0 13.415 0 12.876v-10.9C0 1.44.298 1 .852 1h12.622c.553 0 1.002.437 1.002.976l.15 2.738 2.964-.003c.27 0 .526.12.696.326l3.52 3.74c.126.154.194.345.194.542l-.006 3.228c0 .477-.4 1.306-.89 1.306h-1.01c-.347 1.063-1.368 1.833-2.574 1.833-1.206 0-2.227-.77-2.573-1.833l-5.58-.003V12.3h5.568c.276-.894 1.027-1.587 1.968-1.8.198-.05.405-.076.617-.076.212 0 .418.026.616.075.937.212 1.685.9 1.964 1.787zm-15.134-.533c-.74 0-1.338.584-1.338 1.304 0 .72.6 1.303 1.338 1.303.74 0 1.34-.582 1.34-1.302 0-.72-.6-1.304-1.34-1.304zm12.554 0c-.74 0-1.34.584-1.34 1.304 0 .72.6 1.303 1.34 1.303.74 0 1.34-.582 1.34-1.302 0-.72-.6-1.304-1.34-1.304z" id="VanIconGrey-Fill-1"/></g></g></symbol><symbol viewBox="0 0 21 15" id="icon-CardIconBlue"><g id="CardIconBlue-Page-1" fill="none" fill-rule="evenodd"><path d="M17.813 0c.875 0 1.624.312 2.25.938.625.625.937 1.374.937 2.25v8.25c0 .875-.312 1.624-.938 2.25-.625.625-1.374.937-2.25.937H3.188c-.875 0-1.624-.312-2.25-.938C.313 13.063 0 12.313 0 11.438v-8.25c0-.875.312-1.624.938-2.25C1.563.313 2.312 0 3.188 0h14.624zM3.188 1.875c-.36 0-.668.13-.926.387-.258.258-.387.566-.387.925V4.5h17.25V3.187c0-.36-.13-.667-.387-.925-.258-.258-.566-.387-.925-.387H3.188zM17.812 12.75c.36 0 .668-.13.926-.387.258-.258.387-.566.387-.925V6.375H1.875v5.063c0 .36.13.667.387.925.258.258.566.387.925.387h14.626zM4.126 10.5V8.625H7.5V10.5H4.125z" id="CardIconBlue-creditcard" fill="#3B5997"/></g></symbol><symbol viewBox="0 0 22 16" id="icon-cardIconGrey"><g id="cardIconGrey-Page-1" fill="#DFDFDF" fill-rule="evenodd"><path d="M18.313.688c.875 0 1.624.312 2.25.937.625.625.937 1.375.937 2.25v8.25c0 .875-.312 1.625-.938 2.25-.625.625-1.374.938-2.25.938H3.688c-.875 0-1.624-.313-2.25-.938C.813 13.75.5 13 .5 12.125v-8.25c0-.875.312-1.625.938-2.25C2.063 1 2.812.687 3.688.687h14.624zM3.688 2.563c-.36 0-.668.128-.926.386-.258.257-.387.566-.387.925v1.313h17.25V3.875c0-.36-.13-.668-.387-.926-.258-.26-.566-.388-.925-.388H3.688zm14.624 10.874c.36 0 .668-.128.926-.386.258-.257.387-.566.387-.925V7.062H2.375v5.063c0 .36.13.668.387.926.258.26.566.387.925.387h14.626zm-13.687-2.25V9.313H8v1.874H4.625z" id="cardIconGrey-creditcard"/></g></symbol><symbol viewBox="0 0 17 19" id="icon-GiftIcon"><g id="GiftIcon-Page-1" fill="none" fill-rule="evenodd"><path d="M11.17 7.44H4.995l-.63-1.697H11.8l-.63 1.696zm-9.494 5.79v3.733c0 .024.003.047.045.1.02.008.04.008.057.008h5.435v-3.84H1.676zm7.214 3.84h5.434c.038 0 .06-.014.074-.027.02-.02.027-.03.027-.08v-9.42c0-.046-.012-.063-.027-.077-.02-.02-.044-.03-.074-.03H12.49l.86-2.377c.226-.656.196-1.285-.093-1.92-.297-.63-.747-1.053-1.373-1.285-.65-.246-1.258-.22-1.87.08-.292.13-.54.316-.79.583-.17.192-.322.62-.432.932l-.115.317H7.42l-.058-.172c-.09-.274-.276-.843-.486-1.08-.22-.247-.478-.44-.77-.58-.618-.302-1.228-.326-1.873-.08-.633.234-1.095.667-1.377 1.286-.293.624-.323 1.252-.09 1.922l.86 2.373h-1.85c-.016 0-.036 0-.087.044 0 0-.014.036-.014.063v3.988h5.536V8.67H8.89v2.863h4.283v1.7H8.89v3.84zm5.434 1.7H1.777c-.38 0-.722-.11-1.022-.332-.08-.06-.16-.127-.233-.204-.347-.35-.522-.778-.522-1.27v-9.42c0-.43.154-.84.447-1.184.233-.27.502-.448.815-.538l-.07-.18C1.005 5.126.924 4.626.945 4.106l.007-.13c.04-.54.164-1.046.384-1.55.21-.472.52-.91.917-1.304.15-.138.3-.258.456-.37L2.774.71c.266-.18.56-.334.876-.458.102-.038.196-.068.292-.096l.1-.027c.396-.103.804-.142 1.205-.126.576.03 1.088.16 1.564.398.21.095.514.308.897.63.133.112.254.22.345.3.29-.257.875-.76 1.245-.933.484-.236.995-.365 1.558-.396.418-.017.83.023 1.227.13.122.032.244.07.364.116.26.1.503.218.728.355.242.148.467.32.672.514.35.333.63.707.84 1.112.032.063.063.128.092.192.204.47.33.974.384 1.547.004.052.006.098.008.145.02.53-.067 1.03-.262 1.528l-.063.18c.066.017.13.04.192.067.24.104.45.264.622.474.29.327.443.726.443 1.18v9.42c0 .49-.176.92-.523 1.272-.333.353-.757.535-1.256.535z" id="GiftIcon-Fill-1" fill="#DFDFDF"/></g></symbol><symbol viewBox="0 0 17 19" id="icon-giftIconBlue"><g id="giftIconBlue-Page-1" fill="none" fill-rule="evenodd"><path d="M11.17 7.44H4.995l-.63-1.697H11.8l-.63 1.696zm-9.494 5.79v3.733c0 .024.003.047.045.1.02.008.04.008.057.008h5.435v-3.84H1.676zm7.214 3.84h5.434c.038 0 .06-.014.074-.027.02-.02.027-.03.027-.08v-9.42c0-.046-.012-.063-.027-.077-.02-.02-.044-.03-.074-.03H12.49l.86-2.377c.226-.656.196-1.285-.093-1.92-.297-.63-.747-1.053-1.373-1.285-.65-.246-1.258-.22-1.87.08-.292.13-.54.316-.79.583-.17.192-.322.62-.432.932l-.115.317H7.42l-.058-.172c-.09-.274-.276-.843-.486-1.08-.22-.247-.478-.44-.77-.58-.618-.302-1.228-.326-1.873-.08-.633.234-1.095.667-1.377 1.286-.293.624-.323 1.252-.09 1.922l.86 2.373h-1.85c-.016 0-.036 0-.087.044 0 0-.014.036-.014.063v3.988h5.536V8.67H8.89v2.863h4.283v1.7H8.89v3.84zm5.434 1.7H1.777c-.38 0-.722-.11-1.022-.332-.08-.06-.16-.127-.233-.204-.347-.35-.522-.778-.522-1.27v-9.42c0-.43.154-.84.447-1.184.233-.27.502-.448.815-.538l-.07-.18C1.005 5.126.924 4.626.945 4.106l.007-.13c.04-.54.164-1.046.384-1.55.21-.472.52-.91.917-1.304.15-.138.3-.258.456-.37L2.774.71c.266-.18.56-.334.876-.458.102-.038.196-.068.292-.096l.1-.027c.396-.103.804-.142 1.205-.126.576.03 1.088.16 1.564.398.21.095.514.308.897.63.133.112.254.22.345.3.29-.257.875-.76 1.245-.933.484-.236.995-.365 1.558-.396.418-.017.83.023 1.227.13.122.032.244.07.364.116.26.1.503.218.728.355.242.148.467.32.672.514.35.333.63.707.84 1.112.032.063.063.128.092.192.204.47.33.974.384 1.547.004.052.006.098.008.145.02.53-.067 1.03-.262 1.528l-.063.18c.066.017.13.04.192.067.24.104.45.264.622.474.29.327.443.726.443 1.18v9.42c0 .49-.176.92-.523 1.272-.333.353-.757.535-1.256.535z" id="giftIconBlue-Fill-1" fill="#3B5998"/></g></symbol><symbol viewBox="0 0 17 20" id="icon-lockicon"><g id="lockicon-Page-1" fill="none" fill-rule="evenodd"><path d="M5.338.832c-.95.555-1.702 1.307-2.256 2.256-.554.95-.832 1.983-.832 3.1v1.7c-.633.046-1.166.304-1.6.773C.216 9.13 0 9.68 0 10.313v6.75c0 .673.238 1.247.715 1.723.476.477 1.05.715 1.723.715h12c.672 0 1.245-.238 1.722-.715.477-.476.714-1.05.714-1.723v-6.75c0-.632-.216-1.183-.65-1.65-.433-.47-.967-.728-1.6-.775v-1.7c0-1.116-.277-2.15-.83-3.1-.556-.948-1.308-1.7-2.257-2.255C10.587.277 9.555 0 8.437 0c-1.117 0-2.15.277-3.1.832zm-3.3 16.63c-.11-.11-.163-.243-.163-.4v-6.75c0-.155.054-.288.164-.397.108-.11.24-.165.398-.165h1.687V6.188c0-1.188.42-2.204 1.266-3.048.844-.843 1.86-1.265 3.047-1.265 1.188 0 2.204.422 3.047 1.265.844.844 1.266 1.86 1.266 3.048v1.687H5.624V9.75h8.813c.156 0 .29.055.4.165.108.11.163.242.163.397v6.75c0 .157-.055.29-.164.4-.11.11-.243.163-.4.163H2.44c-.157 0-.29-.054-.4-.164zm5.204-5.34c-.328.333-.492.73-.492 1.19 0 .603.25 1.07.75 1.408v1.406h1.875V14.72c.5-.337.75-.805.75-1.407 0-.46-.164-.858-.492-1.19-.328-.332-.727-.497-1.196-.497-.468 0-.867.165-1.195.497z" id="lockicon-path-1" fill="#3A5897"/></g></symbol><symbol viewBox="0 0 40 53" id="icon-no-wrap-icon"><g id="no-wrap-icon-Page-1" fill="none" fill-rule="evenodd"><g id="no-wrap-icon-Group-10" fill="#3B5997"><path d="M17.793 41.74v-8.787H5.413v8.065c0 .206.08.362.206.518.154.127.31.205.512.205h11.66zM11.156 18.8l.91 2.425h14.51l.91-2.424h-16.33zm21.43 22.218V21.942c0-.183-.052-.364-.207-.517-.128-.13-.31-.208-.515-.208h-3.03l1.515-4.135c.514-1.473.438-2.87-.206-4.265-.665-1.395-1.692-2.352-3.106-2.87-1.44-.54-2.85-.49-4.237.182-.694.307-1.258.747-1.77 1.292-.49.542-.847 1.162-1.104 1.86L19 15.867l-.925-2.585c-.232-.698-.615-1.318-1.103-1.86-.488-.545-1.08-.985-1.747-1.293-1.388-.674-2.798-.724-4.237-.182-1.414.517-2.466 1.474-3.11 2.87-.665 1.395-.72 2.79-.202 4.264l1.515 4.135H6.133c-.203 0-.358.078-.513.208-.128.153-.207.334-.207.518v8.58h12.38v-7.316h2.415v7.315h9.81v2.43h-9.81v8.79h11.657c.206 0 .387-.08.514-.206.154-.156.205-.312.205-.518zM4.53 43.725c.48.297 1.017.446 1.602.446h25.733c.875 0 1.62-.31 2.21-.93.618-.62.925-1.37.925-2.222V21.943c0-.776-.257-1.474-.796-2.07-.266-.32-.574-.566-.917-.74-.317-.16-.664-.256-1.035-.294l.333-.932c.118-.297.215-.594.29-.892.17-.656.238-1.318.212-2-.003-.087-.008-.174-.014-.26-.1-1.06-.333-2.04-.745-2.973-.056-.123-.115-.245-.178-.365-.397-.763-.932-1.47-1.62-2.118-.557-.524-1.183-.952-1.876-1.297-.264-.13-.537-.25-.82-.357l-.185-.066c-.922-.314-1.886-.448-2.872-.398-1.027.053-2.028.283-3.004.75-.95.44-2.774 2.12-2.774 2.12v-.002S17.364 8.523 16.366 8c-.048-.025-.094-.048-.14-.068-.95-.467-1.952-.698-3.004-.75-.84-.044-1.68.052-2.507.287-.184.05-.368.11-.55.176-.605.235-1.17.525-1.7.877-.348.23-.68.49-.996.777-.77.75-1.364 1.58-1.773 2.483-.412.93-.67 1.913-.745 2.972-.005.083-.01.166-.013.25-.04.993.118 1.948.473 2.903l.302.78.058.15c-.795.08-1.44.416-1.977 1.036C3.282 20.47 3 21.167 3 21.942v19.076c0 .854.307 1.6.925 2.22.19.193.392.354.606.487z" id="no-wrap-icon-Fill-2"/><path xmlns="http://www.w3.org/2000/svg" id="no-wrap-icon-Rectangle-79" style="transform:-webkit-rotate(-48deg);-webkit-transform-origin:center;transform:rotate(-48deg);transform-origin:center" d="M18.648.756h2.704v50.83h-2.704z"/></g></g></symbol><symbol viewBox="0 0 15 15" id="icon-TickIconBlue"><path fill="#3B5997" d="M13.044 0L6.09 11.14 1.297 5.02 0 6.04 6.255 14 14.443.865z" id="TickIconBlue-Page-1" fill-rule="evenodd"/></symbol><symbol viewBox="0 0 15 15" id="icon-TickIconGrey"><path d="M13.044 0L6.09 11.14 1.297 5.02 0 6.04 6.255 14 14.443.865z" id="TickIconGrey-Page-1" fill="#DFDFDF" fill-rule="evenodd"/></symbol><symbol viewBox="0 0 17 17" id="icon-info"><g id="info-Page-1" fill="none" fill-rule="evenodd"><text id="info-i" font-family="Lato-Bold, Lato" font-size="10.4" font-weight="bold" fill="#3B5997"><tspan x="6.791" y="12">i</tspan></text><ellipse id="info-Oval-24" stroke="#3B5997" stroke-width="1.5" cx="8.2" cy="8.2" rx="7.2" ry="7.2"/></g></symbol><symbol viewBox="0 0 28 19" id="icon-Card Disable icon"><g id="Card Disable icon-Page-1" fill="none" fill-rule="evenodd"><path d="M25.36 17.643H2.24c-.487 0-.897-.414-.897-.904V8.735h24.912v8.003c0 .49-.41.903-.896.903M2.24 1.357h23.12c.484 0 .895.414.895.904v1.86H1.343V2.26c0-.49.41-.903.896-.903M25.36 0H2.24C1.007 0 0 1.017 0 2.26v14.48C0 17.982 1.008 19 2.24 19h23.12c1.23 0 2.238-1.017 2.238-2.26V2.26c0-1.243-1.007-2.26-2.24-2.26" id="Card Disable icon-Fill-1-Copy" fill="#CFCFCF"/></g></symbol><symbol viewBox="0 0 28 19" id="icon-GR"><g id="GR-Page-1" fill="none" fill-rule="evenodd"><g id="GR-Group-3"><path d="M25.36 0H2.24C1.007 0 0 1.017 0 2.26v14.48C0 17.982 1.008 19 2.24 19h23.12c1.23 0 2.238-1.017 2.238-2.26V2.26c0-1.243-1.007-2.26-2.24-2.26" id="GR-Fill-1-Copy-2" fill="#F2693F"/><g id="GR-Group-4" fill="#FFF"><path d="M11.915 6.16c0-.752-.153-1.196-.46-1.537-.222-.222-.564-.376-.82-.376-.392 0-.802.068-1.212.478-.546.58-.614 1.365-.614 2.014 0 .58.187 1.108.545 1.484.307.29.615.426 1.024.426 1.16 0 1.535-1.416 1.535-2.49m1.587 7.27c0-1.008-.768-1.776-2.474-1.656l-1.64.12c-.528.136-1.364.716-1.364 1.638 0 .426.324.938.666 1.177.563.392 1.177.477 2.39.477.63 0 2.508-.444 2.422-1.758M7.87 15.186c-.614-.376-.87-.82-.87-1.383 0-.955.973-1.69 1.792-2.048v-.068c-.717-.153-1.143-.682-1.143-1.194 0-.82.937-1.4 1.535-1.622v-.034c-.666-.29-1.588-1.075-1.588-2.594 0-1.11.99-2.475 2.92-2.475 1.296 0 1.978.784 2.15.99.46-.325 1.04-.666 1.603-.666.564 0 .837.375.802.716 0 .325-.273.632-.665.632-.29 0-.46-.137-.597-.256-.103-.068-.222-.154-.36-.154-.118 0-.323 0-.545.103.137.34.256.716.256 1.297 0 .665-.187 1.314-.63 1.843-.444.495-1.417.853-1.98.853-.376 0-.615-.017-.87-.085-.342.137-.905.478-.905.956 0 .698.853.647 1.997.58 1.4-.07 2.253.084 2.935.613.734.546.82 1.23.836 1.64 0 .8-.29 1.466-1.143 2.098-.444.325-1.468.803-2.918.803-.82 0-1.792-.085-2.612-.546" id="GR-Fill-1"/><path d="M16.26 3.7h1.624v.65h.027c.334-.478.667-.904 1.586-.904h.146v1.718c-1.61.066-1.61 1.332-1.61 1.77v4.157h-1.773V3.7z" id="GR-Fill-16"/></g></g></g></symbol><symbol viewBox="0 0 40 40" id="icon-close"><path fill-rule="evenodd" clip-rule="evenodd" fill="#231F20" d="M20 22.1L37.9 40l2.1-2.1L22.1 20 40 2.1 37.9 0 20 17.9 2.1 0 0 2.1 17.9 20 0 37.9 2.1 40z"/></symbol><symbol viewBox="0 0 20 19" id="icon-computer"><g id="computer-Page-1" fill="none" fill-rule="evenodd"><g id="computer-icon-computer" fill="#000"><path d="M0 0v15.202h6.77l-.625 1.9h-2.44V19h12.59v-1.9h-2.44l-.626-1.898H20V0H0zm1.853 13.3h16.294V1.9H1.853v11.4zm7.222 1.902h1.85l.638 1.9H8.437l.638-1.9zm-1.598-4.467L8.565 8.61l2.418 2.482 1.31-1.342-2.42-2.48 2.072-1.117-7.13-2.734 2.662 7.315z" id="computer-computer"/></g></g></symbol><symbol viewBox="0 0 16 2" id="icon-minus-noColor"><path id="minus-noColor-Path" d="M16 .07v1.86H0V.07z"/></symbol><symbol viewBox="0 0 16 16" id="icon-plus-noColor"><path id="plus-noColor-Plus" d="M16 7.07v1.86H8.93V16H7.07V8.93H0V7.07h7.07V0h1.86v7.07z"/></symbol><symbol viewBox="0 0 40 40" id="icon-expand"><path fill-rule="evenodd" clip-rule="evenodd" d="M23.1 16.9V3.1C23.1 1.4 21.7 0 20 0c-1.7 0-3.1 1.4-3.1 3.1V17H3.1C1.4 16.9 0 18.3 0 20s1.4 3.1 3.1 3.1H17V37c0 1.7 1.4 3.1 3.1 3.1 1.7 0 3.1-1.4 3.1-3.1V23.1h13.9c1.7 0 3.1-1.4 3.1-3.1 0-1.7-1.4-3.1-3.1-3.1h-14z"/></symbol><symbol viewBox="0 0 40 40" id="icon-offensive"><path d="M20 35c8.284 0 15-6.716 15-15 0-8.284-6.716-15-15-15-8.284 0-15 6.716-15 15 0 8.284 6.716 15 15 15zm0 5C8.954 40 0 31.046 0 20S8.954 0 20 0s20 8.954 20 20-8.954 20-20 20zM6 9.536L9.536 6 35.7 32.163 32.162 35.7 6 9.535z"/></symbol><symbol viewBox="0 0 40 40" id="icon-check-colored"><path d="M19 38L40 6.5 33.3 2 15.8 28.3 5.2 19.2 0 25.3 14.9 38z"/></symbol></svg>