<?xml version="1.0" encoding="UTF-8" standalone="no"?>
<svg width="21px" height="20px" viewBox="0 0 21 20" version="1.1" xmlns="http://www.w3.org/2000/svg" xmlns:xlink="http://www.w3.org/1999/xlink">
    <!-- Generator: Sketch 3.7 (28169) - http://www.bohemiancoding.com/sketch -->
    <title>Slice 1</title>
    <desc>Created with Sketch.</desc>
    <defs></defs>
    <g id="Page-1" stroke="none" stroke-width="1" fill="none" fill-rule="evenodd">
        <path d="M2.25,0 L2.25,3.375 L4.125,3.375 L4.125,1.875 L18.375,1.875 L18.375,18 L4.125,18 L4.125,16.5 L5.625,16.5 L5.625,14.625 L0,14.625 L0,16.5 L2.25,16.5 L2.25,19.875 L20.25,19.875 L20.25,0 L2.25,0 Z M7.5,11.624 L15.375,11.624 L15.375,4.874 L7.5,4.874 L7.5,11.624 Z M9.375,9.75 L13.5,9.75 L13.5,6.75 L9.375,6.75 L9.375,9.75 Z M0,4.874 L0,6.75 L2.25,6.75 L2.25,8.249 L4.125,8.249 L4.125,6.75 L5.625,6.75 L5.625,4.874 L0,4.874 Z M0,9.75 L0,11.624 L2.25,11.624 L2.25,13.125 L4.125,13.125 L4.125,11.624 L5.625,11.624 L5.625,9.75 L0,9.75 Z" fill="#3B5997"></path>
    </g>
</svg>