<?xml version="1.0" encoding="UTF-8" standalone="no"?>
<svg width="28px" height="19px" viewBox="0 0 28 19" version="1.1" xmlns="http://www.w3.org/2000/svg" xmlns:xlink="http://www.w3.org/1999/xlink">
    <!-- Generator: Sketch 3.7 (28169) - http://www.bohemiancoding.com/sketch -->
    <title>Slice 1</title>
    <desc>Created with Sketch.</desc>
    <defs></defs>
    <g id="Page-1" stroke="none" stroke-width="1" fill="none" fill-rule="evenodd">
        <path d="M25.3592359,17.6434493 L2.23909432,17.6434493 C1.75321085,17.6434493 1.34345659,17.2289477 1.34345659,16.7390821 L1.34345659,8.73618659 L26.2548737,8.73618659 L26.2548737,16.7390821 C26.2548737,17.2289477 25.844373,17.6434493 25.3592359,17.6434493 M2.23909432,1.35655071 L25.3592359,1.35655071 C25.844373,1.35655071 26.2548737,1.77105232 26.2548737,2.26091785 L26.2548737,4.12089961 L1.34345659,4.12089961 L1.34345659,2.26091785 C1.34345659,1.77105232 1.75321085,1.35655071 2.23909432,1.35655071 M25.3592359,0 L2.23909432,0 C1.00759244,0 0,1.01741303 0,2.26091785 L0,16.7390821 C0,17.982587 1.00759244,19 2.23909432,19 L25.3592359,19 C26.5907378,19 27.5983302,17.982587 27.5983302,16.7390821 L27.5983302,2.26091785 C27.5983302,1.01741303 26.5907378,0 25.3592359,0" id="Fill-1-Copy" fill="#CFCFCF"></path>
    </g>
</svg>