<?xml version="1.0" encoding="UTF-8" standalone="no"?>
<svg width="21px" height="15px" viewBox="0 0 21 15" version="1.1" xmlns="http://www.w3.org/2000/svg" xmlns:xlink="http://www.w3.org/1999/xlink">
    <!-- Generator: Sketch 3.7 (28169) - http://www.bohemiancoding.com/sketch -->
    <title>Slice 1</title>
    <desc>Created with Sketch.</desc>
    <defs></defs>
    <g id="Page-1" stroke="none" stroke-width="1" fill="none" fill-rule="evenodd">
        <path d="M17.8125,0 C18.6875044,0 19.4374969,0.312496875 20.0625,0.9375 C20.6875031,1.56250312 21,2.31249562 21,3.1875 L21,11.4375 C21,12.3125044 20.6875031,13.0624969 20.0625,13.6875 C19.4374969,14.3125031 18.6875044,14.625 17.8125,14.625 L3.1875,14.625 C2.31249563,14.625 1.56250312,14.3125031 0.9375,13.6875 C0.312496875,13.0624969 0,12.3125044 0,11.4375 L0,3.1875 C0,2.31249562 0.312496875,1.56250312 0.9375,0.9375 C1.56250312,0.312496875 2.31249563,0 3.1875,0 L17.8125,0 Z M3.1875,1.875 C2.8281232,1.875 2.51953254,2.00390496 2.26171875,2.26171875 C2.00390496,2.51953254 1.875,2.8281232 1.875,3.1875 L1.875,4.5 L19.125,4.5 L19.125,3.1875 C19.125,2.8281232 18.996095,2.51953254 18.7382812,2.26171875 C18.4804675,2.00390496 18.1718768,1.875 17.8125,1.875 L3.1875,1.875 Z M17.8125,12.75 C18.1718768,12.75 18.4804675,12.621095 18.7382812,12.3632812 C18.996095,12.1054675 19.125,11.7968768 19.125,11.4375 L19.125,6.375 L1.875,6.375 L1.875,11.4375 C1.875,11.7968768 2.00390496,12.1054675 2.26171875,12.3632812 C2.51953254,12.621095 2.8281232,12.75 3.1875,12.75 L17.8125,12.75 Z M4.125,10.5 L4.125,8.625 L7.5,8.625 L7.5,10.5 L4.125,10.5 Z" id="creditcard" fill="#3B5997"></path>
    </g>
</svg>