<?xml version="1.0" encoding="UTF-8" standalone="no"?>
<svg width="22px" height="16px" viewBox="0 0 22 16" version="1.1" xmlns="http://www.w3.org/2000/svg" xmlns:xlink="http://www.w3.org/1999/xlink">
    <!-- Generator: Sketch 3.7 (28169) - http://www.bohemiancoding.com/sketch -->
    <title>Slice 1</title>
    <desc>Created with Sketch.</desc>
    <defs></defs>
    <g id="Page-1" stroke="none" stroke-width="1" fill="#DFDFDF" fill-rule="evenodd">
        <path d="M18.3125,0.6875 C19.1875044,0.6875 19.9374969,0.999996875 20.5625,1.625 C21.1875031,2.25000312 21.5,2.99999563 21.5,3.875 L21.5,12.125 C21.5,13.0000044 21.1875031,13.7499969 20.5625,14.375 C19.9374969,15.0000031 19.1875044,15.3125 18.3125,15.3125 L3.6875,15.3125 C2.81249563,15.3125 2.06250312,15.0000031 1.4375,14.375 C0.812496875,13.7499969 0.5,13.0000044 0.5,12.125 L0.5,3.875 C0.5,2.99999563 0.812496875,2.25000312 1.4375,1.625 C2.06250312,0.999996875 2.81249563,0.6875 3.6875,0.6875 L18.3125,0.6875 Z M3.6875,2.5625 C3.3281232,2.5625 3.01953254,2.69140496 2.76171875,2.94921875 C2.50390496,3.20703254 2.375,3.5156232 2.375,3.875 L2.375,5.1875 L19.625,5.1875 L19.625,3.875 C19.625,3.5156232 19.496095,3.20703254 19.2382812,2.94921875 C18.9804675,2.69140496 18.6718768,2.5625 18.3125,2.5625 L3.6875,2.5625 Z M18.3125,13.4375 C18.6718768,13.4375 18.9804675,13.308595 19.2382812,13.0507812 C19.496095,12.7929675 19.625,12.4843768 19.625,12.125 L19.625,7.0625 L2.375,7.0625 L2.375,12.125 C2.375,12.4843768 2.50390496,12.7929675 2.76171875,13.0507812 C3.01953254,13.308595 3.3281232,13.4375 3.6875,13.4375 L18.3125,13.4375 Z M4.625,11.1875 L4.625,9.3125 L8,9.3125 L8,11.1875 L4.625,11.1875 Z" id="creditcard" fill="#DFDFDF"></path>
    </g>
</svg>
