<?xml version="1.0" encoding="UTF-8" standalone="no"?>
<svg width="22px" height="16px" viewBox="0 0 22 16" version="1.1" xmlns="http://www.w3.org/2000/svg" xmlns:xlink="http://www.w3.org/1999/xlink">
    <!-- Generator: Sketch 3.6.1 (26313) - http://www.bohemiancoding.com/sketch -->
    <title>icons/card</title>
    <desc>Created with Sketch.</desc>
    <defs></defs>
    <g id="Style-Guide" stroke="none" stroke-width="1" fill="none" fill-rule="evenodd">
        <g id="Icons" transform="translate(-21.000000, -528.000000)">
            <g id="icons/card" transform="translate(12.000000, 516.000000)">
                <rect id="Frame-Copy" opacity="0.1" x="0" y="0" width="40" height="40"></rect>
                <path d="M27.3125,12.6875 C28.1875044,12.6875 28.9374969,12.9999969 29.5625,13.625 C30.1875031,14.2500031 30.5,14.9999956 30.5,15.875 L30.5,24.125 C30.5,25.0000044 30.1875031,25.7499969 29.5625,26.375 C28.9374969,27.0000031 28.1875044,27.3125 27.3125,27.3125 L12.6875,27.3125 C11.8124956,27.3125 11.0625031,27.0000031 10.4375,26.375 C9.81249688,25.7499969 9.5,25.0000044 9.5,24.125 L9.5,15.875 C9.5,14.9999956 9.81249688,14.2500031 10.4375,13.625 C11.0625031,12.9999969 11.8124956,12.6875 12.6875,12.6875 L27.3125,12.6875 Z M12.6875,14.5625 C12.3281232,14.5625 12.0195325,14.691405 11.7617188,14.9492188 C11.503905,15.2070325 11.375,15.5156232 11.375,15.875 L11.375,17.1875 L28.625,17.1875 L28.625,15.875 C28.625,15.5156232 28.496095,15.2070325 28.2382812,14.9492188 C27.9804675,14.691405 27.6718768,14.5625 27.3125,14.5625 L12.6875,14.5625 Z M27.3125,25.4375 C27.6718768,25.4375 27.9804675,25.308595 28.2382812,25.0507812 C28.496095,24.7929675 28.625,24.4843768 28.625,24.125 L28.625,19.0625 L11.375,19.0625 L11.375,24.125 C11.375,24.4843768 11.503905,24.7929675 11.7617188,25.0507812 C12.0195325,25.308595 12.3281232,25.4375 12.6875,25.4375 L27.3125,25.4375 Z M13.625,23.1875 L13.625,21.3125 L17,21.3125 L17,23.1875 L13.625,23.1875 Z" id="creditcard" fill="#3B5997"></path>
            </g>
        </g>
    </g>
</svg>