<?xml version="1.0" encoding="UTF-8" standalone="no"?>
<svg width="20px" height="20px" viewBox="0 0 20 20" version="1.1" xmlns="http://www.w3.org/2000/svg" xmlns:xlink="http://www.w3.org/1999/xlink">
    <!-- Generator: Sketch 3.6.1 (26313) - http://www.bohemiancoding.com/sketch -->
    <title>Slice 1</title>
    <desc>Created with Sketch.</desc>
    <defs></defs>
    <g id="Page-1" stroke="none" stroke-width="1" fill-rule="evenodd">
        <path d="M5.90625,15.75 C6.35742413,15.75 6.74365074,15.9106429 7.06494141,16.2319336 C7.38623208,16.5532243 7.546875,16.9394509 7.546875,17.390625 C7.546875,17.8417991 7.38623208,18.2280257 7.06494141,18.5493164 C6.74365074,18.8706071 6.35742413,19.03125 5.90625,19.03125 C5.45507587,19.03125 5.06884926,18.8706071 4.74755859,18.5493164 C4.42626792,18.2280257 4.265625,17.8417991 4.265625,17.390625 C4.265625,16.9394509 4.42626792,16.5532243 4.74755859,16.2319336 C5.06884926,15.9106429 5.45507587,15.75 5.90625,15.75 L5.90625,15.75 Z M16.40625,15.75 C16.8574241,15.75 17.2436507,15.9106429 17.5649414,16.2319336 C17.8862321,16.5532243 18.046875,16.9394509 18.046875,17.390625 C18.046875,17.8417991 17.8862321,18.2280257 17.5649414,18.5493164 C17.2436507,18.8706071 16.8574241,19.03125 16.40625,19.03125 C15.9550759,19.03125 15.5688493,18.8706071 15.2475586,18.5493164 C14.9262679,18.2280257 14.765625,17.8417991 14.765625,17.390625 C14.765625,16.9394509 14.9262679,16.5532243 15.2475586,16.2319336 C15.5688493,15.9106429 15.9550759,15.75 16.40625,15.75 L16.40625,15.75 Z M5.77294922,1.96875 L19.359375,1.96875 L19.2875977,2.85058594 C19.2739257,3.13769675 19.205567,4.02465077 19.0825195,5.51147461 C18.959472,6.99829845 18.8671878,7.93652149 18.8056641,8.32617188 C18.7099605,8.98926113 18.4023463,9.54809343 17.8828125,10.0026855 C17.3632787,10.4572777 16.717289,10.7392573 15.9448242,10.8486328 C15.9311523,10.8486328 13.2412378,11.1699187 7.875,11.8125 L7.875,10.1616211 C8.43554968,10.0932614 9.33104854,9.98730541 10.5615234,9.84375 C11.7919983,9.70019459 12.8942822,9.57031308 13.8684082,9.45410156 C14.8425342,9.33789004 15.4628893,9.25927755 15.7294922,9.21826172 C16.1328145,9.17040992 16.4643542,9.04394634 16.7241211,8.83886719 C16.983888,8.63378804 17.1376951,8.38086088 17.1855469,8.08007812 C17.2607426,7.59472414 17.394042,6.10450466 17.5854492,3.609375 L5.90625,3.609375 L5.90625,12.1303711 C5.90625,12.4311538 6.00366114,12.6721182 6.19848633,12.8532715 C6.39331152,13.0344247 6.65820145,13.125 6.99316406,13.125 L18.046875,13.125 L18.046875,14.765625 L6.99316406,14.765625 C6.21386329,14.765625 5.56445572,14.5144068 5.04492188,14.0119629 C4.52538803,13.509519 4.265625,12.882328 4.265625,12.1303711 L4.265625,2.76855469 C4.265625,2.46777193 4.14428832,2.20459097 3.90161133,1.97900391 C3.65893433,1.75341684 3.37695473,1.640625 3.05566406,1.640625 L0,1.640625 L0,0 L3.05566406,0 C3.67773749,0 4.23998772,0.184568467 4.74243164,0.553710938 C5.24487556,0.922853408 5.58837798,1.39452838 5.77294922,1.96875 L5.77294922,1.96875 Z" id="cart" fill="#000000"></path>
    </g>
</svg>
