<?xml version="1.0" encoding="UTF-8" standalone="no"?>
<svg width="20px" height="19px" viewBox="0 0 20 19" version="1.1" xmlns="http://www.w3.org/2000/svg" xmlns:xlink="http://www.w3.org/1999/xlink">
    <!-- Generator: Sketch 3.8.2 (29753) - http://www.bohemiancoding.com/sketch -->
    <title>icon-computer</title>
    <desc>Created with Sketch.</desc>
    <defs></defs>
    <g id="Page-1" stroke="none" stroke-width="1" fill="none" fill-rule="evenodd">
        <g id="icon-computer" fill="#000000">
            <path d="M0,0 L0,15.20203 L6.771358,15.20203 L6.1451852,17.10101 L3.7037037,17.10101 L3.7037037,19 L16.2962963,19 L16.2962963,17.10101 L13.8548148,17.10101 L13.228642,15.20203 L20,15.20203 L20,0 L0,0 L0,0 L0,0 Z M1.8528395,13.30101 L18.1471605,13.30101 L18.1471605,1.90101 L1.8528395,1.90101 L1.8528395,13.30101 L1.8528395,13.30101 L1.8528395,13.30101 Z M9.0745679,15.20203 L10.9254321,15.20203 L11.5634568,17.10101 L8.4365432,17.10101 L9.0745679,15.20203 L9.0745679,15.20203 L9.0745679,15.20203 Z M7.4765432,10.73525 L8.5649383,8.60928 L10.982716,11.09195 L12.2923457,9.75029 L9.8725926,7.26965 L11.9446914,6.15296 L4.8138272,3.41899 L7.4765432,10.73525 L7.4765432,10.73525 L7.4765432,10.73525 Z" id="computer"></path>
        </g>
    </g>
</svg>