<svg width="21" height="21" viewBox="0 0 21 21" xmlns="http://www.w3.org/2000/svg"><title>icon-contact</title><desc>Created with Sketch.</desc><path d="M1.919 15.633v.023c.266.914.699 1.721 1.301 2.42.601.7 1.219 1.049 1.851 1.049h.012c.625-.008 1.408-.179 2.35-.515.941-.336 2.033-.895 3.275-1.676 1.242-.781 2.395-1.703 3.457-2.766 1.055-1.055 1.975-2.205 2.76-3.451.785-1.246 1.348-2.34 1.687-3.281.34-.942.514-1.721.522-2.338.008-.633-.342-1.252-1.049-1.858-.707-.605-1.521-1.041-2.443-1.306h-.012c-.125.281-.531 1.179-1.219 2.695-.226.477-.472 1.016-.738 1.617l-.035.082.023.035 2.004 2.004-.281.598c-.649 1.297-1.555 2.531-2.719 3.703-1.156 1.156-2.391 2.063-3.703 2.719l-.598.293-2.015-2.016-.024-.023-.094.035-1.617.738c-.812.383-1.711.789-2.695 1.219zm3.152 5.367c-.586 0-1.15-.14-1.693-.422-.543-.281-1.023-.656-1.441-1.125-.418-.468-.782-.982-1.09-1.541-.309-.558-.549-1.138-.721-1.74-.164-.57-.168-1.027-.012-1.371.157-.344.504-.633 1.043-.867.547-.242 1.438-.649 2.672-1.219.617-.273 1.164-.52 1.641-.738.39-.172.707-.258.949-.258.422 0 .84.207 1.254.621l1.043 1.043c.969-.578 1.844-1.258 2.625-2.039.797-.797 1.476-1.668 2.039-2.613l-1.043-1.055c-.367-.359-.572-.721-.615-1.084-.043-.363.037-.732.24-1.107l.75-1.641c.57-1.234.977-2.125 1.219-2.672l.176-.357c.054-.098.138-.219.251-.364.114-.144.258-.256.434-.334.176-.078.377-.117.604-.117.187 0 .445.047.773.141.602.172 1.184.414 1.746.726.563.313 1.078.678 1.547 1.096.469.418.844.902 1.125 1.453s.418 1.119.41 1.705c-.016 1.313-.516 2.946-1.5 4.899-.984 1.953-2.324 3.777-4.019 5.472-1.696 1.696-3.518 3.034-5.467 4.014-1.949.981-3.584 1.479-4.904 1.494h-.036z" fill="#3B5997"/></svg>