<?xml version="1.0" encoding="UTF-8" standalone="no"?>
<svg width="22px" height="18px" viewBox="0 0 22 18" version="1.1" xmlns="http://www.w3.org/2000/svg" xmlns:xlink="http://www.w3.org/1999/xlink">
    <!-- Generator: Sketch 3.6.1 (26313) - http://www.bohemiancoding.com/sketch -->
    <title>Slice 1</title>
    <desc>Created with Sketch.</desc>
    <defs></defs>
    <g id="Page-1" stroke="none" stroke-width="1" fill="none" fill-rule="evenodd">
        <g id="icons/email" fill="#3B5997">
            <path d="M11.908069,7.75222069 L18.5892414,2.8952 L3.74682759,2.8952 L10.428,7.75222069 C10.6237241,7.89150345 10.8702759,7.96151724 11.1676552,7.96151724 C11.4657931,7.96151724 11.7123448,7.89150345 11.908069,7.75222069 L11.908069,7.75222069 Z M19.6293103,14.3901241 L19.6293103,6.92769655 L21.7625517,5.16022069 L21.7625517,17.5586207 L0,17.5586207 L0,4.75428966 L2.13324138,6.53442759 L2.13324138,14.403531 L6.20096552,9.37594483 L7.92075862,10.6198069 L4.0002069,15.4641655 L17.7752414,15.4641655 L14.0549655,10.8812414 L15.7755172,9.63737931 L19.6293103,14.3901241 Z M0,0.8 L21.7625517,0.8 L21.7625517,2.9734069 L13.1749655,9.40201379 C12.6234483,9.80347586 11.9528276,10.0038345 11.1615862,10.0038345 C10.3786897,10.0038345 9.71186207,9.80347586 9.16110345,9.40201379 L0,2.56747586 L0,0.8 Z" id="Fill-1"></path>
        </g>
    </g>
</svg>