<?xml version="1.0" encoding="UTF-8" standalone="no"?>
<svg width="24px" height="24px" viewBox="0 0 24 24" version="1.1" xmlns="http://www.w3.org/2000/svg" xmlns:xlink="http://www.w3.org/1999/xlink">
    <!-- Generator: Sketch 3.6.1 (26313) - http://www.bohemiancoding.com/sketch -->
    <title>icons/social/facebook</title>
    <desc>Created with Sketch.</desc>
    <defs></defs>
    <g id="Style-Guide" stroke="none" stroke-width="1" fill="none" fill-rule="evenodd">
        <g id="Global-Elements" transform="translate(-12.000000, -618.000000)" fill="#3B5997">
            <g id="Footer" transform="translate(0.000000, 303.000000)">
                <g id="global/social" transform="translate(0.000000, 297.000000)">
                    <g id="Facebook" transform="translate(12.000000, 18.000000)">
                        <g id="icons/social/facebook">
                            <path d="M0,3.99005301 C0,1.78640758 1.78429328,0 3.99005301,0 L20.009947,0 C22.2135924,0 24,1.78429328 24,3.99005301 L24,20.009947 C24,22.2135924 22.2157067,24 20.009947,24 L3.99005301,24 C1.78640758,24 0,22.2157067 0,20.009947 L0,3.99005301 Z M11.5820312,24 L11.5820312,14.671875 L8.58203125,14.671875 L8.58203125,11.2148438 L11.5820312,11.2148438 L11.5820312,8.2265625 C11.5820312,5.49609375 13.2460938,3.66796875 16.5390625,3.66796875 C17.9921875,3.66796875 19,3.83203125 19,3.83203125 L19,6.94921875 L16.75,6.94921875 C15.7539062,6.94921875 15.25,7.51171875 15.25,8.49609375 L15.25,11.2148438 L18.7539062,11.2148438 L18.25,14.671875 L15.25,14.671875 L15.25,24 L11.5820312,24 Z" id="Combined-Shape"></path>
                        </g>
                    </g>
                </g>
            </g>
        </g>
    </g>
</svg>