<?xml version="1.0" encoding="UTF-8" standalone="no"?>
<svg width="22px" height="22px" viewBox="0 0 22 22" version="1.1" xmlns="http://www.w3.org/2000/svg" xmlns:xlink="http://www.w3.org/1999/xlink">
    <!-- Generator: Sketch 3.7 (28169) - http://www.bohemiancoding.com/sketch -->
    <title>Slice 1</title>
    <desc>Created with Sketch.</desc>
    <defs></defs>
    <g id="Page-1" stroke="none" stroke-width="1" fill="none" fill-rule="evenodd">
        <path d="M1.36363636,0 C0.617897727,0 0,0.617897727 0,1.36363636 L0,20.4545455 C0,21.2002841 0.617897727,21.8181818 1.36363636,21.8181818 L11.665483,21.8181818 L11.665483,13.3380682 L8.93821023,13.3380682 L8.93821023,10.1953125 L11.665483,10.1953125 L11.665483,7.47869318 C11.665483,4.99644886 13.178267,3.33451705 16.171875,3.33451705 C17.4928977,3.33451705 18.4090909,3.48366477 18.4090909,3.48366477 L18.4090909,6.31747159 L16.3636364,6.31747159 C15.4580966,6.31747159 15,6.82883523 15,7.72372159 L15,10.1953125 L18.1853693,10.1953125 L17.7272727,13.3380682 L15,13.3380682 L15,21.8181818 L20.4545455,21.8181818 C21.2002841,21.8181818 21.8181818,21.2002841 21.8181818,20.4545455 L21.8181818,1.36363636 C21.8181818,0.617897727 21.2002841,0 20.4545455,0 L1.36363636,0 Z" id="Facebook-" fill="#3B5997"></path>
    </g>
</svg>