<?xml version="1.0" encoding="UTF-8" standalone="no"?>
<svg width="17px" height="19px" viewBox="0 0 17 19" version="1.1" xmlns="http://www.w3.org/2000/svg" xmlns:xlink="http://www.w3.org/1999/xlink">
    <!-- Generator: Sketch 3.7 (28169) - http://www.bohemiancoding.com/sketch -->
    <title>Slice 1</title>
    <desc>Created with Sketch.</desc>
    <defs></defs>
    <g id="Page-1" stroke="none" stroke-width="1" fill="none" fill-rule="evenodd">
        <path d="M11.169,7.4387733 L4.996,7.4387733 L4.367,5.7427733 L11.798,5.7427733 L11.169,7.4387733 Z M1.676,13.2307733 L1.676,16.9627733 C1.676,16.9867733 1.679,17.0097733 1.721,17.0627733 C1.739,17.0707733 1.76,17.0707733 1.777,17.0707733 L7.212,17.0707733 L7.212,13.2307733 L1.676,13.2307733 Z M8.89,17.0707733 L14.324,17.0707733 C14.362,17.0707733 14.385,17.0557733 14.398,17.0427733 C14.418,17.0217733 14.425,17.0117733 14.425,16.9627733 L14.425,7.5427733 C14.425,7.4967733 14.413,7.4797733 14.398,7.4657733 C14.377,7.4447733 14.354,7.4347733 14.324,7.4347733 L12.49,7.4347733 L13.351,5.0587733 C13.576,4.4037733 13.546,3.7747733 13.257,3.1407733 C12.96,2.5087733 12.51,2.0867733 11.884,1.8547733 C11.235,1.6087733 10.626,1.6347733 10.015,1.9337733 C9.722,2.0657733 9.473,2.2507733 9.224,2.5177733 C9.054,2.7097733 8.902,3.1367733 8.792,3.4497733 L8.677,3.7667733 L7.419,3.7667733 L7.362,3.5947733 C7.273,3.3207733 7.086,2.7517733 6.876,2.5137733 C6.657,2.2677733 6.398,2.0737733 6.105,1.9357733 C5.488,1.6327733 4.878,1.6087733 4.233,1.8537733 C3.6,2.0887733 3.138,2.5217733 2.856,3.1407733 C2.563,3.7637733 2.533,4.3917733 2.766,5.0617733 L3.625,7.4347733 L1.777,7.4347733 C1.76,7.4347733 1.74,7.4347733 1.689,7.4787733 C1.691,7.4807733 1.676,7.5157733 1.676,7.5427733 L1.676,11.5307733 L7.212,11.5307733 L7.212,8.6677733 L8.89,8.6677733 L8.89,11.5307733 L13.173,11.5307733 L13.173,13.2307733 L8.89,13.2307733 L8.89,17.0707733 Z M14.324,18.7707733 L1.777,18.7707733 C1.398,18.7707733 1.055,18.6587733 0.755,18.4377733 C0.674,18.3787733 0.596,18.3107733 0.522,18.2337733 C0.175,17.8827733 0,17.4557733 0,16.9627733 L0,7.5427733 C0,7.1127733 0.154,6.7037733 0.447,6.3597733 C0.68,6.0887733 0.949,5.9117733 1.262,5.8217733 L1.192,5.6407733 C1.005,5.1267733 0.924,4.6267733 0.945,4.1067733 L0.952,3.9757733 C0.991,3.4377733 1.116,2.9307733 1.336,2.4267733 C1.546,1.9547733 1.855,1.5157733 2.253,1.1227733 C2.403,0.984773301 2.553,0.864773301 2.709,0.753773301 L2.775,0.709773301 C3.041,0.529773301 3.336,0.375773301 3.651,0.251773301 C3.752,0.213773301 3.846,0.183773301 3.942,0.155773301 L4.042,0.128773301 C4.438,0.0267733013 4.846,-0.0122266987 5.247,0.00377330133 C5.823,0.0347733013 6.335,0.164773301 6.811,0.401773301 C7.02,0.496773301 7.324,0.709773301 7.707,1.0317733 C7.84,1.1437733 7.961,1.2507733 8.052,1.3327733 C8.341,1.0747733 8.927,0.571773301 9.297,0.398773301 C9.781,0.163773301 10.292,0.0347733013 10.855,0.00377330133 C11.273,-0.0132266987 11.686,0.0267733013 12.082,0.132773301 C12.204,0.165773301 12.326,0.204773301 12.446,0.249773301 C12.705,0.348773301 12.949,0.467773301 13.174,0.604773301 C13.416,0.752773301 13.641,0.924773301 13.846,1.1187733 C14.195,1.4527733 14.477,1.8267733 14.685,2.2317733 C14.718,2.2947733 14.749,2.3597733 14.778,2.4237733 C14.982,2.8927733 15.107,3.3977733 15.162,3.9707733 C15.166,4.0217733 15.168,4.0677733 15.17,4.1147733 C15.189,4.6457733 15.103,5.1457733 14.908,5.6427733 L14.845,5.8217733 C14.911,5.8397733 14.975,5.8627733 15.037,5.8897733 C15.278,5.9937733 15.487,6.1537733 15.659,6.3637733 C15.951,6.6907733 16.103,7.0897733 16.103,7.5427733 L16.103,16.9627733 C16.103,17.4547733 15.927,17.8827733 15.58,18.2357733 C15.247,18.5887733 14.823,18.7707733 14.324,18.7707733 L14.324,18.7707733 Z" id="Fill-1" fill="#DFDFDF"></path>
    </g>
</svg>