<svg width="17" height="19" viewBox="0 0 17 19" xmlns="http://www.w3.org/2000/svg"><title>icon/gift</title><desc>Created with Sketch.</desc><path d="M11.169 7.439h-6.173l-.629-1.696h7.431l-.629 1.696zm-9.493 5.792v3.732l.045.1.056.008h5.435v-3.84h-5.536zm7.214 3.84h5.434l.074-.028.027-.08v-9.42l-.027-.077-.074-.031h-1.834l.861-2.376c.225-.655.195-1.284-.094-1.918-.297-.632-.747-1.054-1.373-1.286-.649-.246-1.258-.22-1.869.079-.293.132-.542.317-.791.584-.17.192-.322.619-.432.932l-.115.317h-1.258l-.057-.172c-.089-.274-.276-.843-.486-1.081-.219-.246-.478-.44-.771-.578-.617-.303-1.227-.327-1.872-.082-.633.235-1.095.668-1.377 1.287-.293.623-.323 1.251-.09 1.921l.859 2.373h-1.848l-.088.044-.013.064v3.988h5.536v-2.863h1.678v2.863h4.283v1.7h-4.283v3.84zm5.434 1.7h-12.547c-.379 0-.722-.112-1.022-.333l-.233-.204c-.347-.351-.522-.778-.522-1.271v-9.42c0-.43.154-.839.447-1.183.233-.271.502-.448.815-.538l-.07-.181c-.187-.514-.268-1.014-.247-1.534l.007-.131c.039-.538.164-1.045.384-1.549.21-.472.519-.911.917-1.304.15-.138.3-.258.456-.369l.066-.044c.266-.18.561-.334.876-.458l.291-.096.1-.027c.396-.102.804-.141 1.205-.125.576.031 1.088.161 1.564.398.209.095.513.308.896.63l.345.301c.289-.258.875-.761 1.245-.934.484-.235.995-.364 1.558-.395.418-.017.831.023 1.227.129l.364.117c.259.099.503.218.728.355.242.148.467.32.672.514.349.334.631.708.839 1.113l.093.192c.204.469.329.974.384 1.547l.008.144c.019.531-.067 1.031-.262 1.528l-.063.179.192.068c.241.104.45.264.622.474.292.327.444.726.444 1.179v9.42c0 .492-.176.92-.523 1.273-.333.353-.757.535-1.256.535z" fill="#3B5998"/></svg>