<?xml version="1.0" encoding="UTF-8" standalone="no"?>
<svg width="22px" height="19px" viewBox="0 0 22 19" version="1.1" xmlns="http://www.w3.org/2000/svg" xmlns:xlink="http://www.w3.org/1999/xlink">
    <!-- Generator: Sketch 3.7 (28169) - http://www.bohemiancoding.com/sketch -->
    <title>Slice 1</title>
    <desc>Created with Sketch.</desc>
    <defs></defs>
    <g id="Page-1" stroke="none" stroke-width="1" fill="none" fill-rule="evenodd">
        <path d="M21.8181818,3.6328125 L18.1853693,3.6328125 L18.1853693,0 L17.2691761,0 L17.2691761,3.6328125 L13.6363636,3.6328125 L13.6363636,4.54900568 L17.2691761,4.54900568 L17.2691761,8.18181818 L18.1853693,8.18181818 L18.1853693,4.54900568 L21.8181818,4.54900568 L21.8181818,3.6328125 Z M9.47088068,11.0582386 C8.93821023,10.7066761 7.95809659,9.82244318 7.95809659,9.28977273 C7.95809659,8.68252841 8.12855114,8.38423295 9.04474432,7.64914773 C10.0035511,6.9140625 10.6534091,5.88068182 10.6534091,4.67684659 C10.6534091,3.22798295 10.024858,1.84303977 8.81036932,1.38494318 L10.6321023,1.38494318 L11.9211648,0.458096591 L6.2109375,0.458096591 C3.6328125,0.458096591 1.23579545,2.39701705 1.23579545,4.64488636 C1.23579545,6.94602273 2.98295455,8.7890625 5.58238636,8.7890625 C5.75284091,8.7890625 5.93394886,8.7890625 6.11505682,8.76775568 C5.93394886,9.08735795 5.83806818,9.47088068 5.83806818,9.84375 C5.83806818,10.4829545 6.15767045,10.9836648 6.59446023,11.4098011 L5.60369318,11.4098011 C2.45028409,11.4098011 0,13.4339489 0,15.5326705 C0,17.5994318 2.67400568,18.8884943 5.83806818,18.8884943 C9.47088068,18.8884943 11.4630682,16.8430398 11.4630682,14.7762784 C11.4630682,13.1356534 10.962358,12.1448864 9.47088068,11.0582386 L9.47088068,11.0582386 Z M6.41335227,8.203125 C4.95383523,8.16051136 3.53693182,6.5625 3.28125,4.62357955 C3.02556818,2.70596591 4.01633523,1.21448864 5.47585227,1.26775568 C6.96732955,1.31036932 8.36292614,2.85511364 8.60795455,4.79403409 C8.86363636,6.72230114 7.88352273,8.25639205 6.41335227,8.203125 L6.41335227,8.203125 Z M5.83806818,17.9829545 C3.6328125,17.9829545 2.06676136,16.587358 2.06676136,14.9254261 C2.06676136,13.2848011 4.01633523,11.9424716 6.2109375,11.9424716 C6.72230114,11.9744318 7.20170455,12.0490057 7.62784091,12.1768466 C8.81036932,13.0078125 9.67329545,13.4872159 9.92897727,14.4140625 C9.95028409,14.6164773 9.97159091,14.7975852 9.97159091,15 C9.97159091,16.6619318 8.91690341,17.9829545 5.83806818,17.9829545 L5.83806818,17.9829545 Z" id="pinterest-" fill="#3B5997"></path>
    </g>
</svg>