<?xml version="1.0" encoding="UTF-8" standalone="no"?>
<svg width="28px" height="19px" viewBox="0 0 28 19" version="1.1" xmlns="http://www.w3.org/2000/svg" xmlns:xlink="http://www.w3.org/1999/xlink">
    <!-- Generator: Sketch 3.6.1 (26313) - http://www.bohemiancoding.com/sketch -->
    <title>Slice 1</title>
    <desc>Created with Sketch.</desc>
    <defs></defs>
    <g id="Page-1" stroke="none" stroke-width="1" fill="none" fill-rule="evenodd">
        <g id="Group-3">
            <path d="M25.3592359,0 L2.23909432,0 C1.00759244,0 0,1.01741303 0,2.26091785 L0,16.7390821 C0,17.982587 1.00759244,19 2.23909432,19 L25.3592359,19 C26.5907378,19 27.5983302,17.982587 27.5983302,16.7390821 L27.5983302,2.26091785 C27.5983302,1.01741303 26.5907378,0 25.3592359,0" id="Fill-1-Copy-2" fill="#F2693F"></path>
            <g id="Group-4" transform="translate(7.000000, 3.000000)" fill="#FFFFFF">
                <path d="M4.91519433,3.15867393 C4.91519433,2.40774782 4.76159581,1.96401876 4.45439877,1.62268871 C4.23253424,1.40082418 3.89120419,1.24722566 3.63520665,1.24722566 C3.24267709,1.24722566 2.83308103,1.31528354 2.42348498,1.72508773 C1.8773569,2.30534881 1.80909089,3.09040792 1.80909089,3.73893502 C1.80909089,4.3191961 1.99682241,4.84825768 2.35521897,5.22372073 C2.66241601,5.51385127 2.96961305,5.65038329 3.37920911,5.65038329 C4.53973128,5.65038329 4.91519433,4.23386359 4.91519433,3.15867393 M6.50237906,10.4292121 C6.50237906,9.42228846 5.73438645,8.65408773 4.02773621,8.77376137 L2.38935197,8.89322689 C1.86029039,9.02955078 1.02403177,9.60981186 1.02403177,10.5316111 C1.02403177,10.9582737 1.34829532,11.4700606 1.68962537,11.7089917 C2.25281995,12.1017294 2.86721404,12.1868537 4.07893571,12.1868537 C4.71039631,12.1868537 6.58771158,11.7431247 6.50237906,10.4292121 M0.870433251,12.1868537 C0.256039163,11.8113907 4.16256162e-05,11.3676616 4.16256162e-05,10.804467 C4.16256162e-05,9.84895103 0.972832266,9.11488329 1.79202438,8.75648674 L1.79202438,8.68822073 C1.07523128,8.53462221 0.648568719,8.00556063 0.648568719,7.49356556 C0.648568719,6.67458157 1.58722635,6.09411236 2.18455394,5.87224782 L2.18455394,5.83811482 C1.51896034,5.54798428 0.597369212,4.76292516 0.597369212,3.24400644 C0.597369212,2.13468378 1.58722635,0.769363588 3.51574113,0.769363588 C4.81279532,0.769363588 5.49545542,1.5544227 5.66612044,1.75922073 C6.12691601,1.43495718 6.70717709,1.09362713 7.27037167,1.09362713 C7.83356626,1.09362713 8.10683842,1.46909019 8.07249729,1.81042024 C8.07249729,2.13468378 7.79943325,2.44188083 7.40690369,2.44188083 C7.11677315,2.44188083 6.94610813,2.30534881 6.80957611,2.18588329 C6.70717709,2.11761728 6.58771158,2.03228477 6.45117956,2.03228477 C6.33171404,2.03228477 6.12691601,2.03228477 5.90505148,2.13468378 C6.0415835,2.47601383 6.16104901,2.85147689 6.16104901,3.43173797 C6.16104901,4.09733157 5.97331749,4.74585866 5.52958842,5.27492024 C5.08585936,5.76984881 4.11306872,6.12824536 3.54987414,6.12824536 C3.17441108,6.12824536 2.93548005,6.11117886 2.67948251,6.04291285 C2.33815246,6.179653 1.77495788,6.52077492 1.77495788,6.99863699 C1.77495788,7.69836359 2.628283,7.64716408 3.77173867,7.57889807 C5.17119187,7.51063206 6.024517,7.66423058 6.70717709,8.19329216 C7.4410367,8.73942024 7.52636921,9.42228846 7.54343571,9.83188452 C7.54343571,10.633802 7.25330517,11.2993956 6.39998005,11.9308562 C5.95625099,12.2551197 4.93226084,12.7331899 3.48160813,12.7331899 C2.66241601,12.7331899 1.68962537,12.6478574 0.870433251,12.1868537" id="Fill-1"></path>
                <path d="M9.25912779,0.698724918 L10.8841918,0.698724918 L10.8841918,1.35141457 L10.9108322,1.35141457 C11.2438372,0.871887479 11.5768421,0.445641174 12.4959357,0.445641174 L12.6422497,0.445641174 L12.6422497,2.16394659 C11.030714,2.23033945 11.030714,3.49575817 11.030714,3.93532467 L11.030714,8.09101802 L9.25912779,8.09101802 L9.25912779,0.698724918 Z" id="Fill-16"></path>
            </g>
        </g>
    </g>
</svg>