<?xml version="1.0" encoding="UTF-8" standalone="no"?>
<svg width="40px" height="53px" viewBox="0 0 40 53" version="1.1" xmlns="http://www.w3.org/2000/svg" xmlns:xlink="http://www.w3.org/1999/xlink">
    <!-- Generator: Sketch 3.7 (28169) - http://www.bohemiancoding.com/sketch -->
    <title>Slice 1</title>
    <desc>Created with Sketch.</desc>
    <defs></defs>
    <g id="Page-1" stroke="none" stroke-width="1" fill="none" fill-rule="evenodd">
        <g transform="translate(0.000000, 7.000000)" id="Group-10" fill="#3B5997">
            <g transform="translate(0.000000, 0.171215)">
                <path d="M17.7927339,34.5699578 L17.7927339,25.7813053 L5.41263049,25.7813053 L5.41263049,33.8471761 C5.41263049,34.052795 5.49186823,34.2085669 5.6186486,34.3643389 C5.77395456,34.4920719 5.92926051,34.5699578 6.13210911,34.5699578 L17.7927339,34.5699578 Z M11.1557814,11.6297367 L12.0654306,14.053548 L26.5754442,14.053548 L27.4850934,11.6297367 L11.1557814,11.6297367 Z M32.5848339,33.8471761 L32.5848339,23.3512632 L32.5848339,14.771345 C32.5848339,14.5875342 32.5341217,14.4068387 32.3788158,14.2541822 C32.2520354,14.1233338 32.0713734,14.0454478 31.8653553,14.0454478 L28.8353044,14.0454478 L30.3503298,9.91126071 C30.8637903,8.43765821 30.7877221,7.04194168 30.1443117,5.64622516 C29.4787148,4.25050863 28.4517937,3.29406896 27.0381926,2.77690614 C25.5992354,2.23481981 24.1888037,2.28466682 22.8005586,2.95760158 C22.1064361,3.26603001 21.5422634,3.70530686 21.0288029,4.25050863 C20.5406985,4.79259496 20.1825439,5.41256726 19.9258137,6.11042552 L19.000317,8.69623962 L18.0748202,6.11042552 C17.843446,5.41256726 17.4599354,4.79259496 16.971831,4.25050863 C16.4837266,3.70530686 15.8910283,3.26603001 15.2254314,2.95760158 C13.8371863,2.28466682 12.4267546,2.23481981 10.9877974,2.77690614 C9.57419623,3.29406896 8.52191914,4.25050863 7.87850875,5.64622516 C7.21291179,7.04194168 7.15903013,8.43765821 7.67566015,9.91126071 L9.1906856,14.0454478 L6.13210911,14.0454478 C5.92926051,14.0454478 5.77395456,14.1233338 5.6186486,14.2541822 C5.49186823,14.4068387 5.41263049,14.5875342 5.41263049,14.771345 L5.41263049,23.3512632 L17.7927339,23.3512632 L17.7927339,16.0362131 L19.000317,16.0362131 L20.2079,16.0362131 L20.2079,23.3512632 L30.0175313,23.3512632 L30.0175313,25.7813053 L20.2079,25.7813053 L20.2079,34.5699578 L31.8653553,34.5699578 C32.0713734,34.5699578 32.2520354,34.4920719 32.3788158,34.3643389 C32.5341217,34.2085669 32.5848339,34.052795 32.5848339,33.8471761 L32.5848339,33.8471761 Z M4.5306983,36.5536353 C5.00965309,36.8508678 5.54660583,37 6.13210911,37 L19.000317,37 L31.8653553,37 C32.7401399,37 33.4849745,36.6884561 34.0745033,36.0684838 C34.6925576,35.4485115 35,34.6976908 35,33.8471761 L35,14.771345 C35,13.9956008 34.7432697,13.2977425 34.2044532,12.7026938 C33.9379999,12.3809677 33.6297237,12.1355881 33.2871541,11.9630718 C32.9696048,11.8030635 32.6226006,11.7056749 32.2521207,11.6681294 L32.5848339,10.736852 C32.703112,10.4399409 32.7999739,10.1430299 32.8761691,9.84493985 C33.044699,9.18867286 33.1130548,8.52686057 33.0868411,7.84450921 C33.0836921,7.75798691 33.0790523,7.67116847 33.0729383,7.58402801 C32.971514,6.52477886 32.7401399,5.54341568 32.3281036,4.61189952 C32.2720617,4.48859182 32.2127362,4.36678259 32.1500555,4.24645615 C31.7533235,3.48372941 31.2175093,2.77710261 30.530358,2.12858335 C29.9726573,1.60521189 29.3468199,1.17658469 28.6540491,0.832056144 C28.390297,0.700910289 28.1168356,0.581952936 27.8337394,0.474596954 C27.8334584,0.474419227 27.833282,0.474352316 27.8331055,0.47428541 C27.7718644,0.45161403 27.7104236,0.429751866 27.6487895,0.408699688 C26.7281209,0.094418778 25.7643585,-0.0392313684 24.7783324,0.0103965909 C23.7514114,0.0633590484 22.7498465,0.293901511 21.7736376,0.761217312 C20.8227848,1.20049417 19.000317,2.87971561 19.000317,2.87971561 C19.000317,2.87971561 19.0001553,2.87956454 18.9998342,2.8792649 C18.9997336,2.87935754 18.999683,2.87940407 18.999683,2.87940407 C18.999683,2.87940407 17.3636452,1.3506901 16.3656166,0.828893967 C16.3178798,0.8039292 16.2715818,0.781280028 16.2269963,0.761217312 C16.2268906,0.761165387 16.226785,0.761113466 16.2266793,0.761061547 C16.2265769,0.761002317 16.2264697,0.760954035 16.2263624,0.760905768 C15.2755096,0.293589967 14.2739447,0.0630475046 13.2216676,0.010085047 C12.3816266,-0.0332392498 11.5415857,0.0631121348 10.7154243,0.297433867 C10.5308765,0.349638972 10.3469319,0.408699631 10.163725,0.474596954 C9.55990775,0.709373978 8.99410586,0.999635038 8.4656248,1.35152399 C8.11707078,1.58324111 7.78479914,1.84167632 7.46900814,2.12858335 C6.69881738,2.87940407 6.10611913,3.70811076 5.69725243,4.61158797 C5.28521622,5.54310414 5.02848597,6.52446732 4.95241774,7.58371647 C4.94659738,7.6669104 4.94211305,7.74977602 4.9389676,7.83233984 C4.89894835,8.82667472 5.05849963,9.78176334 5.41263049,10.736852 L5.71534514,11.5172693 L5.77332066,11.6680566 C4.97777382,11.7459425 4.33436342,12.0824099 3.79554684,12.7023822 C3.28208633,13.297431 3,13.9952893 3,14.7710335 L3,33.8468645 C3,34.7004947 3.3074424,35.4482 3.92549672,36.0681723 C4.11510418,36.2593485 4.31706824,36.4211971 4.53064544,36.5536267 Z" id="Fill-2"></path>
                <polygon xmlns="http://www.w3.org/2000/svg" id="Rectangle-79" points="18.6476328 -6.41498821 21.3523672 -6.41498821 21.3523672 44.4149882 18.6476328 44.4149882" style="transform: -webkit-rotate(-48deg); -webkit-transform-origin: center; transform: rotate(-48deg); transform-origin: center;"/>
            </g>
        </g>
    </g>
</svg>