<?xml version="1.0" encoding="UTF-8" standalone="no"?>
<svg width="17px" height="20px" viewBox="0 0 17 20" version="1.1" xmlns="http://www.w3.org/2000/svg" xmlns:xlink="http://www.w3.org/1999/xlink">
    <!-- Generator: Sketch 3.7.2 (28276) - http://www.bohemiancoding.com/sketch -->
    <title>icon-password</title>
    <desc>Created with Sketch.</desc>
    <defs></defs>
    <g id="Page-1" stroke="none" stroke-width="1" fill="none" fill-rule="evenodd">
        <g id="icon-password" fill="#3A5897">
            <path d="M5.338,0.832 C4.389,1.387 3.636,2.139 3.082,3.088 C2.528,4.038 2.25,5.071 2.25,6.188 L2.25,7.887 C1.617,7.934 1.084,8.192 0.65,8.661 C0.216,9.129 0,9.68 0,10.312 L0,17.062 C0,17.735 0.238,18.309 0.715,18.785 C1.191,19.262 1.765,19.5 2.438,19.5 L14.437,19.5 C15.11,19.5 15.683,19.262 16.16,18.785 C16.637,18.309 16.874,17.735 16.874,17.062 L16.874,10.312 C16.874,9.68 16.658,9.129 16.225,8.661 C15.791,8.192 15.257,7.934 14.624,7.887 L14.624,6.188 C14.624,5.071 14.347,4.038 13.793,3.088 C13.238,2.139 12.486,1.387 11.537,0.832 C10.588,0.277 9.555,0 8.437,0 C7.32,0 6.287,0.277 5.338,0.832 L5.338,0.832 L5.338,0.832 Z M2.039,17.461 C1.929,17.352 1.875,17.219 1.875,17.062 L1.875,10.312 C1.875,10.157 1.929,10.024 2.039,9.915 C2.148,9.805 2.281,9.75 2.438,9.75 L4.125,9.75 L4.125,6.188 C4.125,5 4.546,3.984 5.391,3.14 C6.234,2.297 7.25,1.875 8.437,1.875 C9.625,1.875 10.641,2.297 11.484,3.14 C12.328,3.984 12.75,5 12.75,6.188 L12.75,7.875 L5.624,7.875 L5.624,9.75 L14.437,9.75 C14.593,9.75 14.727,9.805 14.836,9.915 C14.945,10.024 15,10.157 15,10.312 L15,17.062 C15,17.219 14.945,17.352 14.836,17.461 C14.727,17.571 14.593,17.625 14.437,17.625 L2.438,17.625 C2.281,17.625 2.148,17.571 2.039,17.461 L2.039,17.461 L2.039,17.461 Z M7.242,12.123 C6.914,12.455 6.75,12.852 6.75,13.313 C6.75,13.915 7,14.383 7.5,14.72 L7.5,16.126 L9.375,16.126 L9.375,14.72 C9.874,14.383 10.124,13.915 10.124,13.313 C10.124,12.852 9.961,12.455 9.633,12.123 C9.305,11.791 8.906,11.626 8.437,11.626 C7.969,11.626 7.57,11.791 7.242,12.123 L7.242,12.123 L7.242,12.123 Z"></path>
        </g>
    </g>
</svg>