<svg width="17" height="21" viewBox="0 0 17 21" xmlns="http://www.w3.org/2000/svg"><title>icons/pdf</title><desc>Created with Sketch.</desc><path d="M12.75 4.875h-2.25v.75h1.875v1.125h-1.875v1.875h-1.125v-4.875h3.375v1.125zm-4.875 12v-5.625h5.625v1.875h-3.75v3.75h-1.875zm-1.523-9.375c.25 0 .451-.084.603-.252.152-.168.246-.336.281-.504.035-.168.053-.346.053-.533l-.029-.34c-.02-.117-.061-.26-.123-.428-.063-.168-.17-.304-.323-.41-.152-.105-.337-.158-.556-.158h-.633v2.625h.727zm.293-3.75c.445 0 .818.127 1.119.381.3.254.509.558.627.914.117.355.175.744.175 1.166 0 .734-.183 1.32-.55 1.758-.368.437-.911.656-1.629.656h-1.887v-4.875h2.145zm-5.52 1.125v1.5h.668c.18 0 .34-.068.48-.205.141-.137.211-.318.211-.545 0-.211-.062-.389-.187-.533-.125-.145-.27-.217-.434-.217h-.738zm0 2.625v1.125h-1.125v-4.875h2.168c.516 0 .906.207 1.172.621.265.414.398.832.398 1.254 0 .555-.156 1.006-.468 1.354-.313.347-.715.521-1.208.521h-.937zm-1.125-7.5h16.875v14.074l-6.141 6.176h-10.734v-9.75h1.875v7.875h8.074l5.051-5.074v-11.426h-15v-1.875z" fill="#3B5997"/></svg>