<?xml version="1.0" encoding="UTF-8" standalone="no"?>
<svg width="17px" height="22px" viewBox="0 0 17 22" version="1.1" xmlns="http://www.w3.org/2000/svg" xmlns:xlink="http://www.w3.org/1999/xlink">
    <!-- Generator: Sketch 3.7 (28169) - http://www.bohemiancoding.com/sketch -->
    <title>Slice 1</title>
    <desc>Created with Sketch.</desc>
    <defs></defs>
    <g id="Page-1" stroke="none" stroke-width="1" fill="none" fill-rule="evenodd">
        <path d="M8.73933519,0 C2.91658385,0 0,4.17696473 0,7.65603261 C0,9.74972316 0.791644188,11.6246699 2.49992902,12.3433995 C2.7915874,12.4475632 3.0415803,12.3433995 3.1144949,12.020492 C3.16657675,11.822581 3.31240595,11.2809297 3.3644878,11.0413532 C3.4374024,10.7392784 3.40615328,10.6455311 3.1874095,10.3747054 C2.69784006,9.78097228 2.37493257,9.04140994 2.37493257,7.947691 C2.37493257,4.86444521 4.69778328,2.09369055 8.42684406,2.09369055 C11.7080009,2.09369055 13.5100331,4.09363376 13.5100331,6.79147383 C13.5100331,10.3226236 11.9579938,13.312122 9.63514308,13.312122 C8.34351309,13.312122 7.38520697,12.2496522 7.67686535,10.9371894 C8.05185471,9.38515018 8.7705843,7.70811447 8.7705843,6.59356278 C8.7705843,5.5831748 8.22893301,4.7602815 7.11438133,4.7602815 C5.80191859,4.7602815 4.77069787,6.09357698 4.77069787,7.92685826 C4.77069787,9.08307543 5.13527085,9.87471961 5.13527085,9.87471961 C5.13527085,9.87471961 3.80197538,15.5516418 3.58323159,16.541197 C3.1144949,18.5203075 3.51031699,20.9577383 3.53114974,21.2077312 C3.56239885,21.3327276 3.72906078,21.3848095 3.83322449,21.259813 C3.95822094,21.1139838 5.51026021,19.1869552 6.03107875,17.2599266 C6.19774069,16.7182753 6.89563754,13.9058552 6.89563754,13.9058552 C7.33312511,14.7183321 8.57267325,15.4058126 9.90596873,15.4058126 C13.8329406,15.4058126 16.4995315,11.822581 16.4995315,7.01021762 C16.4995315,3.38532054 13.4371185,0 8.73933519,0 L8.73933519,0 Z" id="pinterest-" fill="#3B5997"></path>
    </g>
</svg>