<?xml version="1.0" encoding="UTF-8" standalone="no"?>
<svg width="24px" height="24px" viewBox="0 0 24 24" version="1.1" xmlns="http://www.w3.org/2000/svg" xmlns:xlink="http://www.w3.org/1999/xlink">
    <!-- Generator: Sketch 3.6.1 (26313) - http://www.bohemiancoding.com/sketch -->
    <title>icons/social/pinterest</title>
    <desc>Created with Sketch.</desc>
    <defs></defs>
    <g id="Style-Guide" stroke="none" stroke-width="1" fill="none" fill-rule="evenodd">
        <g id="Global-Elements" transform="translate(-218.000000, -618.000000)" fill="#3B5997">
            <g id="Footer" transform="translate(0.000000, 303.000000)">
                <g id="global/social" transform="translate(0.000000, 297.000000)">
                    <g id="Pinterest" transform="translate(218.000000, 18.000000)">
                        <g id="icons/social/pinterest">
                            <path d="M0,3.99005301 C0,1.78640758 1.78429328,0 3.99005301,0 L20.009947,0 C22.2135924,0 24,1.78429328 24,3.99005301 L24,20.009947 C24,22.2135924 22.2157067,24 20.009947,24 L3.99005301,24 C1.78640758,24 0,22.2157067 0,20.009947 L0,3.99005301 Z M5.42539602,10.1014317 C5.42539602,11.7699865 6.05629236,13.2642147 7.41770026,13.8370022 C7.65013575,13.9200148 7.84936617,13.8370022 7.90747505,13.5796629 C7.94898139,13.4219388 8.06519913,12.9902729 8.10670547,12.7993437 C8.16481434,12.5586069 8.13991054,12.4838955 7.96558392,12.2680626 C7.57542434,11.7948903 7.31808504,11.2055003 7.31808504,10.3338672 C7.31808504,7.87669199 9.16926773,5.6685548 12.1411216,5.6685548 C14.7560209,5.6685548 16.1921402,7.26239819 16.1921402,9.41242651 C16.1921402,12.2265562 14.9552513,14.6090201 13.1040686,14.6090201 C12.0747114,14.6090201 11.3109948,13.7622908 11.5434303,12.716331 C11.8422759,11.4794422 12.4150634,10.1429381 12.4150634,9.25470242 C12.4150634,8.44947946 11.9833975,7.79367932 11.0951618,7.79367932 C10.0492021,7.79367932 9.2273766,8.85624158 9.2273766,10.3172647 C9.2273766,11.2387054 9.51792097,11.8696017 9.51792097,11.8696017 C9.51792097,11.8696017 8.45535871,16.3937926 8.28103209,17.182413 C7.90747505,18.7596539 8.22292322,20.7021505 8.23952575,20.9013809 C8.26442956,21.0009962 8.39724984,21.0425025 8.48026252,20.9428873 C8.57987773,20.8266695 9.81676661,19.290935 10.23183,17.7552005 C10.3646503,17.3235346 10.9208352,15.0821923 10.9208352,15.0821923 C11.2694884,15.7296912 12.2573393,16.2775749 13.3199016,16.2775749 C16.4494795,16.2775749 18.574604,13.4219388 18.574604,9.58675313 C18.574604,6.69791199 16.1340313,4 12.3901596,4 C7.74975096,4 5.42539602,7.32880833 5.42539602,10.1014317 Z" id="Combined-Shape"></path>
                        </g>
                    </g>
                </g>
            </g>
        </g>
    </g>
</svg>