<svg width="22" height="16" viewBox="0 0 22 16" xmlns="http://www.w3.org/2000/svg"><title>icon-privacy</title><desc>Created with Sketch.</desc><path d="M13.165 6.703l1.718-.844c.328.641.492 1.313.492 2.016 0 1.242-.45 2.303-1.351 3.182-.901.878-1.989 1.318-3.262 1.318s-2.36-.44-3.261-1.318c-.901-.879-1.352-1.94-1.352-3.182s.451-2.303 1.352-3.182 1.987-1.318 3.261-1.318v1.875c-.737 0-1.369.258-1.897.773-.529.516-.793 1.133-.793 1.852 0 .719.264 1.336.793 1.851.528.516 1.16.774 1.897.774.737 0 1.369-.258 1.898-.774.528-.515.792-1.132.792-1.851 0-.406-.096-.797-.288-1.172zm-4.781 6.814c.792.239 1.586.358 2.378.358.793 0 1.586-.119 2.379-.358.792-.238 1.503-.546 2.132-.925.628-.379 1.219-.799 1.771-1.26.552-.461 1.013-.914 1.382-1.359.368-.446.656-.854.865-1.225.208-.371.312-.662.312-.873 0-.211-.104-.502-.312-.873-.209-.371-.497-.779-.865-1.225-.369-.445-.829-.898-1.382-1.359-.552-.461-1.143-.881-1.771-1.26-.629-.379-1.34-.687-2.132-.926-.793-.238-1.586-.357-2.379-.357-.792 0-1.586.119-2.378.357-.792.239-1.504.547-2.132.926-.628.379-1.22.799-1.772 1.26-.552.461-1.013.914-1.381 1.359-.369.446-.657.854-.865 1.225-.208.371-.313.662-.313.873 0 .211.105.502.313.873.208.371.496.779.865 1.225.368.445.828.898 1.381 1.359.552.461 1.144.881 1.772 1.26.628.379 1.34.687 2.132.925zm-.42-13.113c.937-.269 1.87-.404 2.798-.404.93 0 1.862.135 2.799.404.937.27 1.792.623 2.565 1.061.773.437 1.5.937 2.18 1.5.681.562 1.253 1.134 1.717 1.717.465.582.831 1.152 1.1 1.71.268.559.402 1.053.402 1.483 0 .43-.134.924-.402 1.482-.269.559-.634 1.129-1.1 1.711-.464.582-1.036 1.155-1.717 1.717-.681.563-1.407 1.063-2.18 1.5-.773.438-1.628.791-2.565 1.061-.937.269-1.87.404-2.799.404-.929 0-1.861-.135-2.798-.404-.937-.27-1.792-.623-2.565-1.061-.773-.437-1.5-.937-2.18-1.5-.681-.562-1.254-1.135-1.718-1.717-.464-.582-.83-1.152-1.099-1.711-.269-.558-.403-1.052-.403-1.482 0-.43.134-.924.403-1.483.269-.558.634-1.128 1.099-1.71.464-.583 1.037-1.155 1.718-1.717.681-.563 1.407-1.063 2.18-1.5.773-.438 1.628-.791 2.565-1.061z" fill="#3B5997"/></svg>