<?xml version="1.0" encoding="utf-8"?>
<!-- Generator: Adobe Illustrator 19.1.0, SVG Export Plug-In . SVG Version: 6.00 Build 0)  -->
<svg version="1.1" id="Layer_1" xmlns="http://www.w3.org/2000/svg" xmlns:xlink="http://www.w3.org/1999/xlink" x="0px" y="0px"
	 viewBox="0 0 40 40" enable-background="new 0 0 40 40" xml:space="preserve">
<path fill-rule="evenodd" clip-rule="evenodd" d="M20.4,7c-2.7,0-5,0.8-6.4,1.6l1.3,4.2c1-0.7,2.5-1.1,3.8-1.1c1.9,0,2.8,1,2.8,2.3
	c0,1.3-1,2.6-2.2,4.1c-1.7,2-2.4,4.1-2.3,6l0,1.2h5.3v-1c0-1.7,0.5-3.2,1.8-4.8c1.5-1.6,3.2-3.5,3.2-6.4C27.8,9.8,25.4,7,20.4,7"/>
<path d="M20,3.1c9.3,0,16.9,7.6,16.9,16.9S29.3,36.9,20,36.9S3.1,29.3,3.1,20S10.7,3.1,20,3.1 M20,0C9,0,0,9,0,20s9,20,20,20
	s20-9,20-20S31,0,20,0L20,0z"/>
<circle fill-rule="evenodd" clip-rule="evenodd" cx="20" cy="31" r="3"/>
</svg>
