<svg width="20px" height="20px" viewBox="0 0 20 20" xmlns="http://www.w3.org/2000/svg">
    <title>icons/search-lg</title>
    <g id="Style-Guide" stroke="none" stroke-width="1" fill-rule="evenodd">
        <g id="Icons" transform="translate(-22.000000, -722.000000)">
            <g id="icons/search-lg" transform="translate(12.000000, 712.000000)">
                <rect id="Frame" opacity="0" x="0" y="0" width="40" height="40"></rect>
                <path d="M30,28.5777218 L28.5777218,30 L23.2787917,24.7010699 C21.7935734,25.8590366 20.106995,26.4380113 18.2190057,26.4380113 C17.1281674,26.4380113 16.0813979,26.2303356 15.0786658,25.814978 C14.0759337,25.3996203 13.1843966,24.8059615 12.4040277,24.0339836 C11.6320498,23.2620058 11.038391,22.3746641 10.6230334,21.371932 C10.2076757,20.3691999 10,19.318235 10,18.2190057 C10,17.1197763 10.2076757,16.0688114 10.6230334,15.0660793 C11.038391,14.0633472 11.6320498,13.1760055 12.4040277,12.4040277 C13.1843966,11.6320498 14.0759337,11.038391 15.0786658,10.6230334 C16.0813979,10.2076757 17.1281674,10 18.2190057,10 C19.318235,10 20.3691999,10.2076757 21.371932,10.6230334 C22.3746641,11.038391 23.2620058,11.6320498 24.0339836,12.4040277 C24.8143525,13.1760055 25.4122069,14.0633472 25.8275645,15.0660793 C26.2429222,16.0688114 26.4505979,17.1197763 26.4505979,18.2190057 C26.4505979,20.0986039 25.8674277,21.7851824 24.7010699,23.2787917 L30,28.5777218 Z M13.8137193,22.6117055 C15.0304235,23.8284097 16.4988376,24.4367527 18.2190057,24.4367527 C19.9391737,24.4367527 21.4075878,23.8284097 22.624292,22.6117055 C23.8326052,21.4033923 24.4367527,19.9391737 24.4367527,18.2190057 C24.4367527,16.5072287 23.8326052,15.0388146 22.624292,13.8137193 C21.3991967,12.6054062 19.9307826,12.0012587 18.2190057,12.0012587 C16.4988376,12.0012587 15.034619,12.6054062 13.8263059,13.8137193 C12.6096016,15.0304235 12.0012587,16.4988376 12.0012587,18.2190057 C12.0012587,19.9391737 12.6054062,21.4033923 13.8137193,22.6117055 Z" id="Combined-Shape" fill="#000000"></path>
            </g>
        </g>
    </g>
</svg>
