<svg width="23" height="23" viewBox="0 0 23 23" xmlns="http://www.w3.org/2000/svg"><title>icon-ship-info</title><desc>Created with Sketch.</desc><path d="M14.707 6.234c0-.469.164-.867.492-1.195.328-.328.727-.492 1.195-.492.469 0 .868.164 1.196.492.328.328.492.726.492 1.195 0 .469-.164.867-.492 1.195-.328.328-.727.492-1.196.492-.468 0-.867-.164-1.195-.492-.328-.328-.492-.726-.492-1.195zm-5.32 8.227l4.863-4.864 1.336 1.324-4.875 4.864-1.324-1.324zm2.355-7.383l1.324 1.324-4.875 4.875-1.324-1.324 4.875-4.875zm-.293 12.879l9.246-9.235-.609-8.32-8.18-.48-9.258 9.246 8.801 8.789zm10.383-19.325l.797 10.805-11.18 11.18-11.449-11.449 11.168-11.168 10.664.632z" fill="#3B5997"/></svg>