<svg width="22" height="15" viewBox="0 0 22 15" xmlns="http://www.w3.org/2000/svg"><title>truck-group</title><desc>Created with Sketch.</desc><path d="M20.1 11.287c.186-.048.324-.21.33-.406l.06-2.114c.003-.105-.033-.207-.101-.288l-2.87-3.056c-.085-.1-.21-.158-.343-.158l-2.2.002c-.245 0-.357-.035-.357.204v3.211l-1.626.027v-6.636c0-.239-.198-.432-.443-.432l-10.245-.027c-.245 0-.443.194-.443.433v8.821c0 .239.198.433.443.433h.077c.334-1.083 1.364-1.871 2.585-1.871 1.49 0 2.698 1.176 2.698 2.628 0 1.451-1.208 2.627-2.698 2.627-1.206 0-2.227-.77-2.573-1.833h-1.391c-.553 0-1.002-.437-1.002-.976v-10.9c0-.538.298-.977.851-.977h12.622c.553 0 1.002.437 1.002.976l.15 2.739 2.964-.003c.271 0 .526.12.695.325l3.52 3.74c.127.154.195.345.195.542l-.007 3.228c-.001.477-.398 1.306-.889 1.306h-1.012c-.346 1.062-1.367 1.833-2.573 1.833s-2.227-.77-2.573-1.833l-5.582-.003v-1.548h5.57c.276-.895 1.027-1.588 1.968-1.802.198-.049.405-.075.617-.075.212 0 .418.026.617.075.936.213 1.685.901 1.964 1.788zm-15.134-.533c-.739 0-1.339.584-1.339 1.304 0 .72.599 1.303 1.339 1.303.739 0 1.339-.583 1.339-1.303s-.599-1.304-1.339-1.304zm12.554 0c-.739 0-1.339.584-1.339 1.304 0 .72.599 1.303 1.339 1.303.739 0 1.339-.583 1.339-1.303s-.599-1.304-1.339-1.304z" fill="#3B5997"/></svg>