<svg width="23" height="14" viewBox="0 0 23 14" xmlns="http://www.w3.org/2000/svg"><title>size-chart</title><desc>Created with Sketch.</desc><path d="M1.209 10.392c.656-.488 1.541-.731 2.653-.731.263 0 .491.012.684.037-.293.444-.49.925-.59 1.444l-.052-.005-.042-.004c-.406 0-.762.04-1.069.122-.306.081-.537.176-.693.285-.157.11-.283.239-.38.389-.097.15-.158.272-.183.366l-.047.291-.094 1.265h-1.396l.103-1.387c.081-.894.45-1.584 1.106-2.072zm1.545-5.311c-.263 0-.486.075-.67.225-.185.15-.277.379-.277.685 0 .375.089.686.267.933.178.247.405.37.68.37s.501-.123.68-.37c.178-.247.267-.558.267-.933 0-.325-.091-.558-.272-.699-.181-.14-.406-.211-.675-.211zm1.725 2.874c-.456.522-1.028.783-1.716.783-.687 0-1.259-.261-1.715-.783-.457-.522-.685-1.174-.685-1.955 0-.681.227-1.245.68-1.692.453-.447 1.027-.67 1.72-.67.682 0 1.252.226 1.711.679.46.454.689 1.014.689 1.683 0 .781-.228 1.433-.684 1.955zm12.831-5.775c-.265-.25-.594-.375-.984-.375-.391 0-.719.125-.985.375-.265.25-.398.562-.398.937 0 .524.131.959.393 1.307.261.348.591.522.99.522.398 0 .728-.174.99-.522.262-.348.393-.783.393-1.307 0-.375-.133-.687-.399-.937zm1.289 3.533c-.609.691-1.367 1.037-2.273 1.037-.906 0-1.664-.346-2.274-1.037-.609-.691-.914-1.553-.914-2.584 0-.883.307-1.625.92-2.226.613-.602 1.369-.903 2.268-.903.898 0 1.654.301 2.267.903.614.601.92 1.343.92 2.226 0 1.031-.304 1.893-.914 2.584zm-5.73 5.631l-.211 2.531h-1.746l.211-2.66c.117-1.18.644-2.092 1.582-2.736.937-.645 2.207-.967 3.808-.967 1.602 0 2.871.322 3.809.967.937.644 1.465 1.552 1.582 2.724l.211 2.672h-1.746l-.211-2.543c-.063-.648-.406-1.14-1.031-1.476-.625-.336-1.497-.504-2.614-.504-1.117 0-1.988.168-2.613.504-.625.336-.969.832-1.031 1.488zm-2.643-7.758c-.23-.187-.51-.281-.838-.281-.328 0-.607.094-.838.281-.23.188-.345.473-.345.856 0 .468.111.857.334 1.166.222.308.506.463.849.463.344 0 .627-.155.85-.463.223-.309.334-.698.334-1.166 0-.383-.115-.668-.346-.856zm1.307 3.311c-.57.652-1.285.978-2.145.978-.859 0-1.574-.326-2.144-.978-.571-.653-.856-1.467-.856-2.444 0-.851.283-1.556.85-2.115.566-.559 1.283-.838 2.15-.838s1.584.279 2.151.838c.566.559.849 1.264.849 2.115 0 .977-.285 1.791-.855 2.444zm-4.758 5.408l-.117 1.57h-1.735l.118-1.722c.101-1.118.56-1.983 1.377-2.596.816-.613 1.923-.92 3.322-.92.328 0 .617.016.867.047-.359.523-.609 1.125-.75 1.804l-.053-.005-.064-.006c-.508 0-.953.051-1.336.152-.383.102-.672.221-.867.358-.196.136-.354.3-.475.492-.121.191-.197.345-.228.463-.032.117-.051.238-.059.363z" fill="#3B5997"/></svg>