<?xml version="1.0" encoding="UTF-8" standalone="no"?>
<svg width="16px" height="15px" viewBox="0 0 16 15" version="1.1" xmlns="http://www.w3.org/2000/svg" xmlns:xlink="http://www.w3.org/1999/xlink">
    <!-- Generator: Sketch 3.7 (28169) - http://www.bohemiancoding.com/sketch -->
    <title>Slice 1</title>
    <desc>Created with Sketch.</desc>
    <defs></defs>
    <g id="Page-1" stroke="none" stroke-width="1" fill="none" fill-rule="evenodd">
        <g id="half-star" transform="translate(2.000000, 2.000000)">
            <polygon id="Star-1" stroke="#CE9A00" points="5.97979798 9.46316002 2.28407958 11.4126782 2.98989899 7.28353243 0 4.35925517 4.13193878 4.35925517 5.97979798 0 7.82765718 4.35925517 11.959596 4.35925517 8.96969697 7.28353243 9.67551638 11.4126782"></polygon>
            <path d="M5.97979798,8.89847537 C5.97979798,8.89847537 5.97979798,8.04279571 5.97979798,7.93531511 C5.97979798,5.22002172 5.97979798,0.437071487 5.97979798,0.437071487 C5.97979798,-0.11618315 6.15697849,-0.146700938 6.37168139,0.359801251 L7.82765718,3.79457052 L11.959596,3.79457052 L8.96969697,6.71884778 L9.67551638,10.8479935 L5.97979798,8.89847537 Z" id="Star-1" fill="#FFFFFF"></path>
            <polygon id="Star-1" stroke="#CE9A00" points="5.97979798 9.46316002 2.28407958 11.4126782 2.98989899 7.28353243 0 4.35925517 4.13193878 4.35925517 5.97979798 0 7.82765718 4.35925517 11.959596 4.35925517 8.96969697 7.28353243 9.67551638 11.4126782"></polygon>
        </g>
    </g>
</svg>
