<?xml version="1.0" encoding="UTF-8" standalone="no"?>
<svg width="25px" height="24px" viewBox="0 0 25 24" version="1.1" xmlns="http://www.w3.org/2000/svg" xmlns:xlink="http://www.w3.org/1999/xlink">
    <!-- Generator: Sketch 3.6.1 (26313) - http://www.bohemiancoding.com/sketch -->
    <title>icons/social/twitter</title>
    <desc>Created with Sketch.</desc>
    <defs></defs>
    <g id="Style-Guide" stroke="none" stroke-width="1" fill="none" fill-rule="evenodd">
        <g id="Global-Elements" transform="translate(-128.000000, -618.000000)" fill="#3B5997">
            <g id="Footer" transform="translate(0.000000, 303.000000)">
                <g id="global/social" transform="translate(0.000000, 297.000000)">
                    <g id="Twitter" transform="translate(128.500000, 18.000000)">
                        <g id="icons/social/twitter">
                            <path d="M0,3.99005301 C0,1.78640758 1.78429328,0 3.99005301,0 L20.009947,0 C22.2135924,0 24,1.78429328 24,3.99005301 L24,20.009947 C24,22.2135924 22.2157067,24 20.009947,24 L3.99005301,24 C1.78640758,24 0,22.2157067 0,20.009947 L0,3.99005301 Z M21,6.37841797 C20.3691406,6.66064453 19.7050781,6.8515625 18.9912109,6.93457031 C19.7216797,6.50292969 20.2695312,5.81396484 20.5268555,5.00048828 C19.862793,5.39892578 19.1074219,5.68945312 18.3271484,5.84716797 C17.6713867,5.18310547 16.7666016,4.75146484 15.762207,4.75146484 C13.8364258,4.75146484 12.2841797,6.30371094 12.2841797,8.22949219 C12.2841797,8.50341797 12.3007812,8.78564453 12.3588867,9.03466797 C9.47021484,8.87695312 6.91357422,7.56542969 5.17871094,5.45703125 C4.88818359,5.97167969 4.70556641,6.50292969 4.70556641,7.15039062 C4.70556641,8.34570312 5.31982422,9.40820312 6.26611328,10.0390625 C5.69335938,10.0224609 5.16210938,9.86474609 4.68896484,9.60742188 L4.68896484,9.64892578 C4.68896484,11.3422852 5.89257812,12.753418 7.48632812,13.0688477 C7.1875,13.1518555 6.87207031,13.1933594 6.55664062,13.1933594 C6.34082031,13.1933594 6.125,13.168457 5.90917969,13.1269531 C6.34082031,14.5048828 7.64404297,15.5341797 9.15478516,15.5507812 C7.97607422,16.4970703 6.45703125,17.2026367 4.83007812,17.2026367 C4.54785156,17.2026367 4.27392578,17.1860352 4,17.1445312 C5.53564453,18.1323242 7.38671875,18.5639648 9.35400391,18.5639648 C15.762207,18.5639648 19.2651367,13.2514648 19.2651367,8.64453125 L19.2651367,8.18798828 C19.9375,7.69824219 20.5268555,7.09228516 21,6.37841797 Z" id="Combined-Shape"></path>
                        </g>
                    </g>
                </g>
            </g>
        </g>
    </g>
</svg>