<?xml version="1.0" encoding="UTF-8" standalone="no"?>
<svg width="22px" height="18px" viewBox="0 0 22 18" version="1.1" xmlns="http://www.w3.org/2000/svg" xmlns:xlink="http://www.w3.org/1999/xlink">
    <!-- Generator: Sketch 3.7 (28169) - http://www.bohemiancoding.com/sketch -->
    <title>Slice 1</title>
    <desc>Created with Sketch.</desc>
    <defs></defs>
    <g id="Page-1" stroke="none" stroke-width="1" fill="none" fill-rule="evenodd">
        <path d="M21.8181818,2.08806818 C21.0085227,2.45028409 20.15625,2.6953125 19.2400568,2.80184659 C20.1775568,2.24786932 20.8806818,1.36363636 21.2109375,0.319602273 C20.3586648,0.830965909 19.3892045,1.20383523 18.3877841,1.40625 C17.5461648,0.553977273 16.3849432,0 15.0958807,0 C12.6242898,0 10.6321023,1.9921875 10.6321023,4.46377841 C10.6321023,4.81534091 10.6534091,5.17755682 10.727983,5.49715909 C7.02059659,5.29474432 3.73934659,3.61150568 1.51278409,0.905539773 C1.13991477,1.56605114 0.905539773,2.24786932 0.905539773,3.07883523 C0.905539773,4.61292614 1.69389205,5.9765625 2.90838068,6.78622159 C2.17329545,6.76491477 1.49147727,6.5625 0.884232955,6.23224432 L0.884232955,6.28551136 C0.884232955,8.45880682 2.42897727,10.2698864 4.47443182,10.6747159 C4.09090909,10.78125 3.68607955,10.834517 3.28125,10.834517 C3.00426136,10.834517 2.72727273,10.8025568 2.45028409,10.7492898 C3.00426136,12.5177557 4.67684659,13.8387784 6.61576705,13.8600852 C5.10298295,15.0745739 3.15340909,15.9801136 1.06534091,15.9801136 C0.703125,15.9801136 0.3515625,15.9588068 0,15.9055398 C1.97088068,17.1732955 4.34659091,17.7272727 6.87144886,17.7272727 C15.0958807,17.7272727 19.5916193,10.9090909 19.5916193,4.99644886 L19.5916193,4.41051136 C20.4545455,3.78196023 21.2109375,3.00426136 21.8181818,2.08806818 L21.8181818,2.08806818 Z" id="twitter" fill="#3B5997"></path>
    </g>
</svg>