<?xml version="1.0" encoding="UTF-8" standalone="no"?>
<svg width="20px" height="22px" viewBox="0 0 20 22" version="1.1" xmlns="http://www.w3.org/2000/svg" xmlns:xlink="http://www.w3.org/1999/xlink">
    <!-- Generator: Sketch 3.6.1 (26313) - http://www.bohemiancoding.com/sketch -->
    <title>icons/user</title>
    <desc>Created with Sketch.</desc>
    <defs></defs>
    <g id="Style-Guide" stroke="none" stroke-width="1" fill="none" fill-rule="evenodd">
        <g id="Icons" transform="translate(-22.000000, -425.000000)">
            <g id="icons/user" transform="translate(12.000000, 416.000000)">
                <rect id="Frame-Copy" opacity="0.1" x="0" y="0" width="40" height="40"></rect>
                <path d="M20,21.125 C18.507805,21.125 17.2597706,20.5214904 16.2558594,19.3144531 C15.2519481,18.1074158 14.75,16.6054777 14.75,14.8085938 C14.75,13.8710891 14.9882789,12.9921916 15.4648438,12.171875 C15.9414086,11.3515584 16.5839803,10.7011743 17.3925781,10.2207031 C18.2011759,9.74023197 19.0703079,9.5 20,9.5 C20.9296921,9.5 21.7988241,9.74023197 22.6074219,10.2207031 C23.4160197,10.7011743 24.0585914,11.3515584 24.5351562,12.171875 C25.0117211,12.9921916 25.25,13.8710891 25.25,14.8085938 C25.25,16.6054777 24.7480519,18.1074158 23.7441406,19.3144531 C22.7402294,20.5214904 21.492195,21.125 20,21.125 L20,21.125 Z M20,11.3164062 C19.0937455,11.3164062 18.2968784,11.6660121 17.609375,12.3652344 C16.9218716,13.0644566 16.578125,13.8789016 16.578125,14.8085938 C16.578125,16.0898502 16.9042936,17.160152 17.5566406,18.0195312 C18.2089876,18.8789105 19.0234326,19.3085938 20,19.3085938 C20.9765674,19.3085938 21.7910124,18.8789105 22.4433594,18.0195312 C23.0957064,17.160152 23.421875,16.0898502 23.421875,14.8085938 C23.421875,13.8789016 23.0781284,13.0644566 22.390625,12.3652344 C21.7031216,11.6660121 20.9062545,11.3164062 20,11.3164062 L20,11.3164062 Z M12.1367188,30.5 L10.2617188,30.5 L10.4257812,28.578125 C10.6289073,26.6562404 11.5527262,25.1835989 13.1972656,24.1601562 C14.8418051,23.1367136 17.1093605,22.625 20,22.625 C22.8906395,22.625 25.1581949,23.1347605 26.8027344,24.1542969 C28.4472738,25.1738332 29.3710927,26.6445216 29.5742188,28.5664062 L29.7382812,30.5 L27.8632812,30.5 L27.6992188,28.7421875 C27.6289059,28.0703091 27.4199236,27.474612 27.0722656,26.9550781 C26.7246076,26.4355443 26.3007837,26.023439 25.8007812,25.71875 C25.3007788,25.414061 24.712894,25.1640635 24.0371094,24.96875 C23.3613247,24.7734365 22.7011751,24.6406254 22.0566406,24.5703125 C21.4121062,24.4999996 20.7265661,24.4648438 20,24.4648438 C19.2734339,24.4648438 18.5878938,24.4999996 17.9433594,24.5703125 C17.2988249,24.6406254 16.6386753,24.7734365 15.9628906,24.96875 C15.287106,25.1640635 14.6992212,25.4160141 14.1992188,25.7246094 C13.6992163,26.0332047 13.2753924,26.4453099 12.9277344,26.9609375 C12.5800764,27.4765651 12.3710941,28.0742154 12.3007812,28.7539062 L12.1367188,30.5 Z" id="user" fill="#3B5997"></path>
            </g>
        </g>
    </g>
</svg>