<?xml version="1.0" encoding="UTF-8" standalone="no"?>
<svg width="23px" height="16px" viewBox="0 0 23 16" version="1.1" xmlns="http://www.w3.org/2000/svg" xmlns:xlink="http://www.w3.org/1999/xlink">
    <!-- Generator: Sketch 3.7 (28169) - http://www.bohemiancoding.com/sketch -->
    <title>Slice 1</title>
    <desc>Created with Sketch.</desc>
    <defs></defs>
    <g id="Page-1" stroke="none" stroke-width="1" fill="#DFDFDF" fill-rule="evenodd">
        <g id="Group-3" transform="translate(0.000000, 1.000000)" fill="#DFDFDF">
            <path d="M20.1002287,11.2866091 C20.2861119,11.2386675 20.4240811,11.0763163 20.43052,10.881 L20.49102,8.76707143 C20.49432,8.66207143 20.45802,8.56028571 20.38982,8.47885714 L17.51992,5.42314286 C17.43522,5.3235 17.30982,5.26564286 17.17672,5.26564286 L14.97672,5.26778571 C14.73142,5.26778571 14.61922,5.23242857 14.61922,5.47135714 L14.61922,8.68242857 L12.99342,8.70921429 L12.99342,2.07278571 C12.99342,1.83385714 12.79542,1.641 12.55012,1.641 L2.30472,1.61421429 C2.05942,1.61421429 1.86142,1.80814286 1.86142,2.04707143 L1.86142,10.8681429 C1.86142,11.1070714 2.05942,11.301 2.30472,11.301 L2.3814911,11.301 C2.71506397,10.218287 3.74591497,9.42964286 4.96628,9.42964286 C6.45678,9.42964286 7.66458,10.6060714 7.66458,12.0578571 C7.66458,13.5085714 6.45678,14.685 4.96628,14.685 C3.76032051,14.685 2.7394273,13.9148647 2.39359451,12.8524286 L1.00232,12.8524286 C0.44902,12.8524286 0.00022,12.4152857 0.00022,11.8763571 L0.00022,0.976714286 C0.00022,0.438857143 0.29832,-0.000428571429 0.85162,-0.000428571429 L13.47412,-0.000428571429 C14.02742,-0.000428571429 14.47622,0.436714286 14.47622,0.975642857 L14.62582,3.71421429 L17.59032,3.711 C17.86092,3.711 18.11612,3.831 18.28552,4.03564286 L21.80552,7.776 C21.93202,7.93028571 22.00022,8.121 22.00022,8.31814286 L21.99362,11.5463571 C21.99252,12.0231429 21.59542,12.8524286 21.10482,12.8524286 L20.0926055,12.8524286 C19.7467727,13.9148647 18.7258795,14.685 17.51992,14.685 C16.3139359,14.685 15.2930256,13.9148332 14.9472133,12.8523635 L9.36562,12.8492143 L9.36562,11.301 L14.9351311,11.301 C15.2107196,10.406493 15.9622423,9.71270555 16.903365,9.49853465 C17.1014527,9.44969327 17.3081463,9.42385714 17.51992,9.42385714 C17.7316937,9.42385714 17.9383873,9.44969327 18.136475,9.49853465 C19.0725446,9.71155562 19.8210448,10.3990567 20.1002287,11.2866091 Z M4.96628,10.7539286 C4.22708,10.7539286 3.62758,11.3378571 3.62758,12.0578571 C3.62758,12.7778571 4.22708,13.3607143 4.96628,13.3607143 C5.70548,13.3607143 6.30498,12.7778571 6.30498,12.0578571 C6.30498,11.3378571 5.70548,10.7539286 4.96628,10.7539286 Z M17.51992,10.7539286 C16.78072,10.7539286 16.18122,11.3378571 16.18122,12.0578571 C16.18122,12.7778571 16.78072,13.3607143 17.51992,13.3607143 C18.25912,13.3607143 18.85862,12.7778571 18.85862,12.0578571 C18.85862,11.3378571 18.25912,10.7539286 17.51992,10.7539286 Z" id="Fill-1"></path>
        </g>
    </g>
</svg>
