<?xml version="1.0" encoding="UTF-8" standalone="no"?>
<svg width="24px" height="25px" viewBox="0 0 24 25" version="1.1" xmlns="http://www.w3.org/2000/svg" xmlns:xlink="http://www.w3.org/1999/xlink">
    <!-- Generator: Sketch 3.7 (28169) - http://www.bohemiancoding.com/sketch -->
    <title>icons/ui/zoom</title>
    <desc>Created with Sketch.</desc>
    <defs></defs>
    <g id="Page-1" stroke="none" stroke-width="1" fill="none" fill-rule="evenodd">
        <g id="icons/ui/zoom" transform="translate(-8.000000, -8.000000)">
            <rect id="Frame" opacity="0.274720149" x="0" y="0" width="40" height="40"></rect>
            <path d="M16,16 L13,16 L13,18 L16,18 L16,21 L18,21 L18,18 L21,18 L21,16 L18,16 L18,13 L16,13 L16,16 Z M21.5865802,24.7452295 C20.2434226,25.5423383 18.6751576,26 17,26 C12.0294373,26 8,21.9705627 8,17 C8,12.0294373 12.0294373,8 17,8 C21.9705627,8 26,12.0294373 26,17 C26,19.2093267 25.2039265,21.2327205 23.8829762,22.7989847 L31.253529,30.1695375 L29.1322086,32.2908579 L21.5865802,24.7452295 Z" id="Icon" fill="#5F574F"></path>
        </g>
    </g>
</svg>